<?xml version="1.0" encoding="UTF-8"?>
<svg id="Layer_1" xmlns="http://www.w3.org/2000/svg" width="338" height="204" version="1.1" viewBox="0 0 338 204">
  <!-- Generator: Adobe Illustrator 30.2.1, SVG Export Plug-In . SVG Version: 2.1.1 Build 1)  -->
  <g id="EukR11">
    <g>
      <path d="M337.477,118.952c-4.056-5.148-9.656-8.556-15.754-10.889-9.211-3.524-19.05-4.239-28.745-2.425-3.45.646-6.613,1.976-9.357,3.963.09,1.161.132,2.024-.085,3.032-.446-1.052-.241-1.977-.191-2.995.165-3.392.149-6.594.037-10.026-.334-10.202-6.933-19.154-16.814-22.06-5.752-1.692-14.454-.771-20.462.101-4.057.589-7.927,1.901-11.242,4.376-.901.673-1.878,1.426-2.853,1.978-.443-.297-.994-.842-1.158-1.125.925-1.347,1.691-2.537,2.591-3.693l2.141-2.752,4.435-4.977c.541-.607.954-1.146,1.552-1.685.971-.873,1.562-2.111,2.287-3.195,1.7-2.544,2.91-5.145,4.078-7.977,2.767-6.707,4.162-11.283,2.624-18.679-.689-3.317-1.181-6.518-1.765-9.846l-1.057-6.028c7.038-5.822,1.767-5.672,6.426-11.214.395-.47.455-1.462-.166-1.701l-2.694-1.038c-1.819-.7-3.78-.262-5.421.888-7.471,5.237-16.154,7.226-18.927,15.182l-1.793,5.143c-2.317-.991-3.539,3.142-3.941,4.729-.568,2.245-.375,4.363.308,6.591.24-.285.613-.705.797-.544.147.129.366.657.327.949-.464,3.502-.877,7.723-1.021,11.313-.013.324-.556.591-.734.473-.178-.118-.42-.618-.399-.84l1.079-11.276c-1.284,3.407-4.006,5.432-4.886,8.246-.488,1.56-1.009,2.639-2.396,3.72l-1.306,3.17c-1.654-7.158-1.794-14.207-.625-21.121,1.667-1.272,4.534-10.83,2.409-11.936-2.042-1.063-6.005,7.904-3.468,11.669-1.033,5.177-1.376,10.257-1.417,15.81-2.187-3.44-4.34-6.921-5.152-10.848,2.321-3.079,2.134-9.03-.035-12.05-2.081-2.897-4.561,5.886-1.814,11.112.452.861.842,1.537,1.067,2.444,1.118,4.512,3,8.621,5.195,12.737.857,1.608,1.491,3.167,1.771,4.914l1.098,6.861c.081.507-.133,1.435.035,1.953l.164.507c.03.091-.207.185-.24.099-.817-2.139-2.614-4.582-4.673-5.846-.317-.194-1.299-.452-1.457-.79-2.917-6.238-5.012-12.594-6.352-19.283.214-.595.675-1.605.561-2.148-.716-3.42-2.017-6.51-4.173-9.213-.589-.738-1.842-1.599-2.743-1.021-2.191,1.405,3.313,12.078,5.446,13.274,1.285,6.406,3.25,12.164,5.631,18.262-3.385-1.443-6.836-.767-9.957-1.754-5.051-1.596-12.036-6.832-17.631-6.407-1.244.094-4.071.453-4.258,1.925-.034.268.464.918.732.983,3.664.889,7.576.833,11.275.924,2.399.059,4.301,1.841,6.291,2.878l-12.213,1.046c-3.597.308-6.773,2.426-8.919,5.234l-7.431,9.72c2.129-.813,2.707-2.976,5.074-3.05-1.045,1.662-2.985,1.922-4.279,3.232-1.628,1.647-1.974.29-4.005,4.015,5.813-3.66,15.28-4.609,21.953-2.963l3.868.954c-7.919,1.336-23.167,5.91-29.218,10.513-4.778,3.634-7.722,8.914-9.593,14.484-.687,2.047-1.41,3.911-1.603,6.015-.435,4.743.837,9.202,3.809,12.422,1.073-3.753,8.887-3.783,11.976-3.824l9.307-.122c13.254-.174,24.225-7.055,33.832-15.725,4.528-4.086,6.69-8.355,13.587-11.314-1.498,1.742-3.504,2.292-5.128,3.633-2.563,2.116-4.375,4.835-6.917,6.896l-1.815,1.471c-1.687,1.367-3.756,6.231-4.588,8.433l-2.836,7.507c-.111.294-.763.683-.85.972-.087.289.157.836.415,1.203-1.653,7.124-1.441,14.499.058,21.701.629,3.021,1.486,5.711,2.267,8.67,1.337,5.068,2.535,10.067,4.995,14.787,2.033,3.901,5.084,6.831,8.072,9.963.199.208.625.795.728.606.076-.14.278-.629.223-1.019-.958-6.735-.447-14.892,1.515-21.679.867-2.996,1.248-5.729,2.308-8.571,1.877-5.035,4.05-9.844,6.512-14.62,1.808-3.506,3.78-6.691,4.981-10.426.87-2.708,1.571-5.506,1.673-8.276.607-.322,1.05-.805,1.179-1.463l1.04-5.287c4.523,10.123,9.276,19.536,14.313,29.291,4.58,8.87,9.212,17.257,14.361,25.779,2.443,4.044,4.673,7.948,7.647,11.629-3.685-.026-6.225-2.04-9.329-3.168-12.102-4.397-27.235-1.196-37.398,6.628-7.477,5.755-12.413,14.031-14.131,23.263-.237,1.275-.437,2.538-.624,3.798h4.674c3.477-.2,6.964-.166,10.448-.15,4.035-3.5,8.297-6.71,11.733-9.298,10.802-.291,22.15-6.41,29.677-13.845,2.254-2.226,4.495-1.881,7.348-3.644,4.509,6.869,9.016,13.576,14.03,20.13.966,1.263,3.218,4.018,5.681,6.661h11.712l-6.576-7.582-15.086-18.903c-3.815-4.78-6.871-9.741-10.293-14.736-.256-4.655,3.312-11.814,5.894-15.607,7.048-10.355,17.079-18.591,28.906-23.061,7.907-2.988,16.359-3.626,24.627-2.869,3.101.284,6.917,1.351,9.768,3.282v-4.857l-.554-.703ZM238.401,20.222c.75-.995,1.214-1.98,1.777-3.23-.025.391-.019,1.569-.259,2.008l-3.865,7.069c-1.452,2.656-2.158,5.414-3.855,8.028.465-5.297,3.148-9.82,6.202-13.875ZM151.973,103.57l2.956-.843c.29-.082.904.07,1.261.305-1.453.47-2.609.788-4.217.538ZM164.295,101.871c-.38-.012-.899-.135-1.429-.321l.837-.837c.228-.228,1.038.002,1.228.291h0c.151.23-.359.876-.637.867ZM179.707,71.422c-.269.003-.031-1.031.247-1.074,2.448-.382,4.763-.495,7.383-.409-2.374,1.637-4.79,1.454-7.63,1.483ZM186.287,79.71c2.819-1.561,6.084-1.915,9.432-1.655l-9.432,1.655ZM286.262,124.823l-.892.163h0c-6.214,1.139-9.91-1.136-14.027-5.806-3.507,4.668-5.497,10.043-5.98,15.803-.48,5.726-.039,11.253.786,16.906.284,1.945.38,3.731.08,5.673-.868-.372-1.52-.903-2.036-1.749-5.202-8.527-10.152-16.922-14.896-25.728-4.834-8.972-8.9-17.91-12.875-27.364-.602-.512-2.067.133-2.646.593-.336-.112-1.592-.676-1.788-.292l-1.352,3.618.585-4.763c-2.276-.768-5.741-1.15-5.618-4.287,2.319,2.897,5.301,3.258,8.73,3.403l14.136.596,4.628.117c3.137.079,6.844.429,8.988,3.302,5.241,7.026,8.099,13.161,15.428,18.111,2.385,1.611,5.256,2.179,8.045,1.354-.547-2.448-1.393-4.627-1.674-7.146l2.021,6.632c.062.202.547.829.358.864Z" fill="#113313"/>
      <path d="M264.535,73.241c-1.148.327-4.253,2.039-4.769.115l-3.657,1.141c-10.421,3.25-13.145,1.226-22.556,7.566,1.012-2.309,2.514-3.594,3.723-5.361,1.111-1.624,2.194-3.214,3.506-4.712l2.524-2.883c3.992-4.56,5.627-10.945,8.519-13.406,3.622-3.082,7.428-5.247,11.723-7.383,8.171-4.065,17.072-6.871,26.303-6.208,10.644.764,20.394,5.888,27.696,13.606,2.707,2.86,5.488,4.805,9.822,4.668-1.947,1.674-4.654,2.37-6.973,1.307-2.238-1.026-4.333-1.877-6.903-1.945-12.596-.33-22.257,3.135-33.956,7.674l-14.409,5.591.232-1.93-1.28.607c-.284.135.104.767.456,1.554h0ZM310.509,53.473c-4.669-2.033-9.393-2.628-14.172-2.845-4.042-.183-8.112,1.833-11.081,4.068,2.799-.876,5.329-3.075,8.261-3.36,3.474-.337,6.808.216,10.208.825,2.317.415,4.485,1.275,6.784,1.311h0Z" fill="#113313"/>
    </g>
  </g>
</svg>