<?xml version="1.0" encoding="UTF-8"?>
<svg id="Layer_1" xmlns="http://www.w3.org/2000/svg" width="338" height="204" version="1.1" viewBox="0 0 338 204">
  <!-- Generator: Adobe Illustrator 30.2.1, SVG Export Plug-In . SVG Version: 2.1.1 Build 1)  -->
  <g id="flrLy0">
    <path d="M319.143,184.849l-10.525-6.113c-5.893-3.422-10.79-8.369-14.798-13.945-1.678-2.334-1.302-5.677-.381-8.135,1.324-3.534,3.504-6.251,6.073-8.961,3.314-3.497,5.982-7.569,6.438-12.477l-4.026,2.35c1.155-2.014,2.262-3.79,3.23-5.888.856-1.854,2.506-8.593.864-7.156l-2.232,1.953c.3-.681,5.218-9.169,3.453-9.431,1.068-3.743,3.04-7.139,5.757-10.223-1.386.438-2.408.893-3.657,1.209l-4.412,1.117c-.309.079-.953-.071-1.272.139-1.984,1.302-3.421,2.649-4.732,4.693-.252-.187-.546-.555-.751-.453-3.279,1.634-4.91,5.833-5.786,9.762l-1.391-4.529c-2.358,3.483-3.148,7.422-2.663,11.366l.714,5.803-2.087-2.058c-.93,4.944,1.089,8.757,1.472,13.618.146,1.849.068,3.76.627,5.528.791,2.504,1.621,4.823,1.853,7.565-4.585-6.767-7.371-14.021-9.545-21.663-2.529-8.89-3.133-15.566-2.711-24.822.337-7.39.033-14.579-1.162-21.893-.089-.55-.028-1.2.039-1.734,1.952,2.497,4.114,4.017,7.092,4.24.98.074,1.818-.493,2.703-.837.821-.32,1.693-.512,2.061-1.457,1.255-3.228-1.312-4.739-.317-5.674.703-.661,3.13.965,3.575,1.354.51.446.785,1.185,1.468,1.244,4.584.399,4.055-.167,6.355-1.89,1.08-.809,1.332-1.939.762-3.164-.932-2.003-2.807-3.089-4.776-4.009l-1.366-.638c-1.296.282-3.096.108-3.965-1.276l3.791-.081c1.525-.032,2.842,1.353,4.165,1.653,2.258.513,4.69-.8,6.35-2.149.72-.586.735-1.411.87-2.159.648-3.586-5.055-4.323-7.54-4.172,1.86-.979,3.913-1.85,5.12-3.639.961-1.423-.189-3.298-1.688-3.803-1.836-.618-3.7-.376-5.574.007,1.746-1.452,3.493-2.67,4.61-4.554,1.612-2.717,1.337-3.138-.341-5.579-3.196-.999-6.88-.199-9.086,2.415-.403.478-.222,1.722-1.35,1.592-.67-.077-1.088.234-1.845.942l-.062-.329c1.211-1.726,1.723-3.803,1.231-5.828-.365-1.503-1.941-2.751-3.4-2.736-4.342.046-6.928,3.658-8.23,7.411-.285-2.205-.808-4.171-2.425-5.653-.927-.85-1.902-.718-2.96-.6-1.174.131-2.121.344-3.104,1.128-2.157,1.719-3.155,4.091-2.309,6.983-2.622-2.661-4.255-4.259-7.827-2.478-1.419.708-2.515,1.803-2.384,3.674.094,1.339.927,2.683,1.856,3.861-3.422-1.786-6.352-2.803-9.802-.208-1.126.847-1.741,2.158-.976,3.632.532,1.025,1.613,1.98,2.595,2.827-3.776-.508-7.937.185-9.803,4.067-2.533,5.27,7.699,6.637,11.218,5.947-3.699.999-9.191,3.63-9.091,8.087,2.298,4.088,4.94,2.924,8.423,2.231l-.135,1.791c.73.9,1.855,1.862,3.052,1.803.901-.045,1.706.28,2.502.372,3.205.372,7.156-2.863,8.405-5.246-.284-1.213-.058-1.82.821-2.647,1.194-1.124,2.207-2.169,3.497-3.139-1.093,2.979-3.72,4.286-4.321,8.095-.042.261.249,1.103.474,1.078l.887-.1-.21,1.072-1.031-.248c.104,1.205.916,2.754,2.111,2.79l1.751.053c.716.021,1.635-.295,1.709-1.041.164-1.653,1.355-3.718,1.762-3.887.286-.119.858-.065,1.4-.078.381-.008.668-.83.957-1.348,1.585,8.02,1.865,15.962,1.472,24.123-.299,6.22-.181,12.204,1.064,18.315,1.296,6.357,3.178,12.337,5.706,18.333,3.513,8.332,8.496,15.481,14.697,22.192-12.478-7.793-25.918-20.292-35.862-31.299-1.007-1.115-1.741-3.222-1.92-4.639-.934-7.372,3.376-13.922.629-21.293l-1.923,2.914c.348-3.732.481-7.095-1.244-10.354l-1.165,1.661-.292-5.019c-.051-.887-.551-1.694-.779-2.478-.729-2.506-.179-5.019.018-7.68l-2.981,3.207c-1.909,2.053-2.649.994-3.562,6.253-2.392.443-1.204,7.206-.801,8.506l-2.348-2.202c-.306,2.783.496,5.24,1.913,7.405l2.135,3.263-1.509-.248c.65,1.808,1.373,3.442,2.439,5.002l6.232,9.116c.719,1.052,1.623,1.785,1.914,3.118l-2.74-3.23c-2.408-2.838-4.372-5.707-6.552-8.782-6.441-9.087-12.664-18.077-17.993-27.853-5.717-10.487-8.83-20.097-11.849-31.448.405-2.432.782-4.9-.419-7.287,3.045,3.028,5.015,5.1,9.477,5.068,1.565-.011,2.25-.921,3.373-1.771,1.028-.778,2.1-1.035,2.032-2.787-.065-1.691-.869-3.315-2.169-4.798,2.412.583,4.759.651,7.125-.265,1.658-.642,3.3-2.347,3.258-4.202-.057-2.538-4.71-3.225-3.552-3.662,1.308-.493,1.657.474,5.492-2.367.421-.312,1.023-1.204.962-1.666-.053-.405-.535-1.078-.876-1.551,2.135-1.419,4.693-2.953,5.286-5.63-.626-2.536-.421-3.482-3.748-4.594-5.423-1.812-10.171,1.662-10.244.915-.007-.069.022-.289.029-.358.177.07,3.045-.95,2.578-.733,3.627-1.685,7.989-7.59,6.476-9.716-2.195-3.083-3.105-3.667-6.492-3.375l-1.085,1.833c1.351.999,1.913-.85,3.389.741-2.398,2.85-3.97,3.708-6.872,4.924-.813.34-1.823,2.121-2.817,2.131-.215.002-.274-.652-.156-.788l4.673-5.369c-1.687-1.938-3.298.138-4.603.087.716-2.176,1.284-3.904.963-5.918-.251-1.573-1.4-2.352-2.769-2.778-.873-.272-1.782-.664-2.774-.428-5.276,1.257-7.728,5.629-9.51,10.387-.09.499-.205.843-.159.188-.045-1.83-.049-3.515-.623-5.131-.613-1.726-1.982-3.606-3.964-3.724-1.689-.101-3.892.363-5.279,1.358-3.213,2.304-3.515,6.855-2.965,10.632-1.977-3.546-5.735-7.339-10.316-5.896-.953.3-1.706.762-2.55,1.319-.802.529-1.061.953-1.399,1.741-.348.813-1.018,1.654-.952,2.849.162,2.944,1.773,5.247,3.837,7.463l-1.302-.702c-2.645-1.427-5.474-2.181-8.454-1.687-1.467.243-2.434,1.073-3.54,2.02-1.419,1.216-2.097,2.907-.724,4.625.978,1.224,2.464,2.082,4.157,3.122-1.038-.464-8.834.068-8.713,2.508-.705.07-1.631.233-2.068.89-.417.626-.548,1.348-.736,2.074-.389,1.499-.239,2.868,1.264,3.839,1.773,1.145,3.901,1.356,6.017,1.483l2.275.137c-4.054.818-10.876,3.643-11.36,8.36-.11,1.074.113,2.82.784,3.818.864,1.285,3.809,1.97,5.119,1.273,1.491-.793,2.081-.849,3.816-.632,1.324.166,2.98-1.155,4.329-1.662.33-.124,1.25.675,1.007.937-.438.472-1.12.591-1.895.672-.436.045-.8.945-1.123,1.273-1.947,1.977-3.447,4.559-3.105,7.463.16,1.353,1.047,1.997,2.118,2.516,1.161.562,2.245.956,3.596.605,1.925-.5,3.619-1.557,5.174-2.682.061,1.293.908,2.347,2.207,2.512,2.625.334,5.042-.862,6.834-2.806.997-1.081,2.157-2.231,2.545-3.519-.246-.429-.674-1.03-.714-1.352-.033-.268.366-.824.599-1.044.707-.668.454-1.798.737-2.571.911-2.488,2.224-4.816,4.072-7.08-.33,2.632-2.122,7.137-3.99,8.915l-.086,3.051c-.047,1.64.145,3.221.981,4.634,1.01,1.708,2.448,1.922,4.297,1.695,2.98-.367,5.299-2.992,5.653-6.02.794.418,1.877,1.106,2.725.852,1.198-.359,2.082-1.324,3.035-2.153l1.909,6.536c2.548,8.721,5.81,16.969,10.271,24.977,7.256,13.028,15.706,25.156,24.928,36.72-1.859-1.467-3.203-3.136-4.935-4.695-1.907-1.716-8.271-6.273-11.198-5.566l1.714,2.116c-6.081-1.76-5.135.087-8.034.639-1.803.343-3.401,1.667-4.968,2.819,7.242.279,3.592,4.19,12.855,4.778l-2.236,1.543c5.008,1.905,9.183.038,13.485-.364,1.75-.164,4.095.085,5.442,1.514,6.044,6.412,11.825,12.68,18.346,18.632,5.373,4.904,10.804,9.158,16.593,13.573-5.738-1.865-11.249-4.013-16.797-6.509-2.903-1.306-5.633-2.439-8.397-4.02l-17.907-10.243c-12.182-6.968-21.377-10.564-34.972-13.939,1.216-1.053,4.065-4.353,3.541-5.898-.25-.739-.903-1.367-1.602-2.047,1.865-1.249,4.01-2.432,4.491-5.015-2.72.295-2.759,2.36-6.791,2.062l2.23-1.875c.95-.799,2.377-1.425,3.518-1.973l1.479.599-.058-2.159c-.069-2.557-4.89-2.824-6.867-1.951,3.23-2.532,6.444-6.296,5.256-10.324-.111-.376-.95-.847-1.119-1.135-.512-.871-1.471-1.72-2.658-1.522-2.846.474-5.206,1.758-7.241,4.1-.732-1.03.504-1.028.874-1.523,1.384-1.851,2.439-4.088,2.847-6.42.245-1.403.297-5.506-1.319-6.106-.689-.255-1.502-.767-2.036-.916-1.843-.515-3.826.99-5.061,2.29-1.641,1.727-2.504,3.66-3.649,5.634l.164-1.259c.033-.253-.523-.494-.803-.672l-.562-3.651,1.572-.419c0-2.049-.729-4.263-2.106-5.707-1.212-1.271-2.212-.753-3.474-.4-.491.138-1.587-.196-2.02.402-.428.592-.116,1.251.152,2.043.329.969.208,2.307.429,3.36.277,1.319-.106,2.298-.366,3.512-.23,1.074.553,2.729-1.387,3.165-.426-.677-.872-1.9-.766-2.808l.405-3.457c.148-1.268.25-2.621.714-3.815.116-.298-.324-1.185-.551-.991-3.811,3.264-3.548,8.144-3.221,12.362-.78-1.491-1.907-2.999-3.354-3.781-2.062-1.113-4.062-.375-5.218,1.437-.454.711-2.197,1.219-1.732,2.392.242.611.793,1.527.649,2.292-.248,1.318.373,2.086.72,3.311.188.662-.552,2.159-.059,2.842,1.802,1.4,3.758,2.631,3.899,5.457-2.954-2.541-.818-1.109-4.089-3.632-.435-.335-1.633-.169-1.647.304-.016.533.045,1.005-.152,1.142-.526.366-4.52-1.141-6.214-1.046l-.563-1.424c-1.623-.036-2.08,1.494-2.801,2.571-1.05,1.569-1.903,3.12-1.264,5.25l1.809-.194c.675-.073,2.094.643,2.379,1.262.165.358.317,1.293.616,1.493,1.165.778,1.547,2.051,1.422,3.352,1.219.971,2.733.296,4.287.877-3.862.059-7.933-.466-11.819,1.93-.981.604-1.903,1.166-1.688,2.755l3.01-1.309c1.066-.463,1.897-.31,2.922.176.468.222,1.275.105,1.261.949l-5.782,1.989-3.806,1.35-.434,2.11c-.213,1.036.823,2.115,1.654,2.703s1.943.559,3.057.208l1.483.889c-.363.319-.767.61-.853.839-.101.27.111,1.657.605,2.016.63.458,2.408-.846,2.833.426-1.746,1.535-3.706,2.62-5.779,3.259-1.272-1.058,2.261-3.025-.056-3.511-1.388,1.303-2.398,3.949-1.909,5.903l1.181,1.798c1.216,1.85,6.325.134,7.974-.695-2.507,2.632-5.488,7.611-4.454,11.736,1.433-.373,1.522-4.603,3.413-4.507-.11,1.443-2.705,5.333-1.386,5.566.94-1.541,2.375-2.221,2.331-1.577-.086,1.281-1.215,2.389-.183,3.436,2.183.15,5.708-3.981,7.283-5.602-.459,1.392-.775,2.837-.815,4.37l1.608,2.459c1.163-1.632.48-4.592,2.518-4.321l-1.063,4.735c-.204.908-.223,2.35.116,3.172,3.357,1.847,7.887-3.91,7.627-6.153-.172-1.486-1.202-2.997-1.204-4.693-.003-3.375.569-6.703,1.694-10.136,1.132.572.506,1.572.386,2.369l-.509,3.386c-.199,1.321.5,2.496,1.864,2.821l.426,1.563c.082.298.048,1.144-.236,1.254-.236.092-.697.216-1.151.342.511,3.164-1.234,4.067.511,4.449,1.212.265,2.799-.654,3.131-1.815-.361-.068-1.2-.448-1.205-.758-.03-1.94-.109-6.669.949-8.285.627.376.72,3.98,1.259,3.061l.356-.606c.461-.786,1.002-1.502,1.721-2.002.791,1.587,1.504,2.72,2.809,3.629,1.05.731,1.778.061,2.698-.225.839-.261,1.636-.583,2.237-1.484,1.739-2.608,1.238-5.603.46-8.471-.155-.573-.133-1.511-.233-2.238l1.994.223-.833-1.373c-.163-.268-.296-.92-.171-1.184.764-1.619,4.307,2.341,4.446,3.443l-1.056,1.11c-.197.207.441,1.15.804,1.087,1.323-.228,3.214-3.929,3.111-5.41-.129-1.863-1.045-3.42-2.224-4.844l-1.467-1.771c1.729-.175,2.961-.188,4.487.131,17.886,3.735,29.283,10.133,44.76,19.41,9.415,5.643,19.202,10.195,29.5,13.912,1.434.518,2.599.943,3.938,1.667-8.098-.952-15.911-.428-23.934.594-2.754.351-5.654-.405-8.304-1.026-2.731-.64-9.791-6.847-12.057-9.013-2.725-2.606-5.735-4.699-9.705-5.313l1.561,3.438c-3.223-2.135-6.224-3.693-9.913-2.964l1.035,1.474c-3.239-.872-6.687-.361-9.934,1.055l-4.37,1.905c5.277.961,5.142,2.468,8.778,4.984-.222.013-.502.033-.57.036.036-.002-.239.132.289.583,2.599,2.223,6.2,3.583,9.841,3.754l-3.79,2.122c4.428,2.914,16.713,1.247,21.354.379,4.019-.751,3.877-1.888,9.93-.365l-17.763,4.517c-8.645,2.198-19.086,3.822-27.963,3.522-.705-2.435-2.735-7.049-4.661-8.39v.006c-1.551-1.08-3.136-1.719-4.992-2.396l-.375.643c-.097-.01-.238-.024-.326-.033-1.862-1.398-8.981-.826-8.682,2.136l-1.205.975c-.22.178.195.821.459,1.251-2.574.829-4.056,3.023-3.811,5.723.272,2.997-.327,2.317,2.083,4.444-1.271.949-.668,1.979-.603,3.029.062,1.006-.171,1.995.78,2.8,1.429,1.211,3.043,1.627,4.881,1.84l-.736.437c-1.522.903,4.371,1.826,8.851.075,3.107-1.214,4.46-3.515,5.865-6.249.662-1.287,2.278-2.147,2.088-4.061,5.53-.256,10.607-.419,15.98-1.186,7.197-1.028,14.08-2.732,21.137-4.577.532.024.667.042.147.237-1.123.599-2.256,1.434-3.372,1.756-4.343,1.253-7.901,3.422-11.705,5.745-3,1.832-6.284,3.083-8.92,5.467-1.727,1.561-3.291,3.153-4.101,5.464l3.919-1.003c-1.577,1.686-2.905,3.403-3.793,5.3h17.229l.304-.626.046.626h4.157c2.267-4.357,3.521-10.405,4.206-13.94.436-2.252.926-4.602,2.447-6.423,1.149-1.376,3.042-3.315,4.816-3.811,5.756-1.609,11.443-2.269,17.363-2.722,8.862-.679,22.115.171,30.067,4.184,11.442,5.774,21.813,12.97,31.976,20.748.217.166.759.066,1.109-.115v-2.085c-.004-.04-.01-.081,0-.117v-1.42c0-.091.022-.173.027-.262l-18.973-13.128ZM292.578,82.577l.674-.037c2.48-.136,4.957,1.412,4.393,1.666-1.484.668-3.118-.053-4.625-.846l-.461-.242c-.118-.062-.114-.534.019-.541ZM295.024,85.743h.001c.969.398,1.92.514,2.446,1.46l-3.195.11-3.582-2.158c-.149-.089-.417-.572-.45-.745-.044-.23.644-.371.867-.279l3.913,1.612ZM300.008,74.554l.622-.777c1.397.032,3.06-.634,4.435.974-.755.69-5.728.643-5.057-.197ZM299.512,76.285c1.419.018,2.923-.881,4.148.435h0c-.608,1.072-7.248,1.034-8.108.125,1.101-1.562,2.651-.577,3.96-.56ZM298.467,57.897c.241-.086.937.66.753.892h0c-.902,1.138-2.209,1.911-3.31,2.685l-3.085,2.168c-2.165-1.431,4.156-5.213,5.642-5.745ZM294.451,57.19l2.267-1.179c-.045,1.405-1.198,1.482-1.768,2.311h0c-.888,1.292-3.234,3.356-4.63,2.677.775-1.981,2.438-2.929,4.131-3.809ZM291.991,65.724l.365.457c.112.141-.226.859-.412.946h0l-2.735,1.281c-.469.22-.938.205-1.53-.08,1.47-1.085,2.689-1.791,4.311-2.604ZM297.799,71.349c-3.299,1.175-6.503,2.168-10.119,2.406-.525-.545,10.731-3.989,10.119-2.406ZM286.454,61.885c-1.198,1.82-2.36,3.36-3.944,5.058,1.119-1.756,2.052-3.702,3.944-5.058ZM285.294,50.744c.862-.003-.648,2.198-.924,3.12h.001c-.402,1.341-1.944,6.032-3.981,4.58.289-1.888,2.961-7.694,4.904-7.7ZM249.856,74.091l-5.155-.388c1.258-1.55,3.151-.889,4.746-.58l.85.165c.239.047-.162.824-.441.803ZM247.082,85.593c-.062-.203.287-.762.501-.822l2.799-.79c-.299,1.014-1.164,1.537-2.148,1.815l-.708.2c-.155.044-.397-.25-.444-.403ZM247.37,89.134c.548-1.024,3.089-3.264,4.61-2.541.377,1.911-3.115,3.056-4.61,2.541ZM264.443,61.432l-3.129-3.936c.878-1.827,4.131,2.852,3.129,3.936ZM261.156,60.768h0c.937.947,1.953,1.822.848,3.291-1.078-1.249-2.007-2.736-2.615-4.29,1.023-.7,1.189.414,1.767.999ZM252.228,70.432c-.2-.082.043-.701.227-.815.727-.448,1.265.626,3.338,1.389l4.168,1.535h0c.833.306,1.628.557,2.138,1.433-3.062-.956-5.957-1.947-8.945-3.165l-.925-.377ZM260.778,78.942c-.903,1.088-2.486,1.036-3.739.293,1.245-.287,2.354-.415,3.739-.293ZM257.325,88.531c.331-.895,1.475-1.408,2.042-1.476h0c.122-.015.596.32.563.439-.26.946-1.424,1.127-2.605,1.037ZM254.854,88.12l-.625.395c-.121.077-.257-.316-.307-.448-.067-.177.127-.583.327-.635.529-.137,1.001-.879,1.396-1.163,2.713-1.949,5.822-3.065,8.967-4.061h0c-3.478,2.641-6.482,3.841-9.758,5.912ZM262.8,68.378c-1.019-.633-2.124-1.269-1.883-2.79l1.088.169c1.352,1.387,2.43,2.527,3.636,4.385l-2.841-1.764ZM268.428,62.436c.843,1.353,1.398,2.734,1.549,4.246-1.033-.689-2.38-3.121-1.549-4.246ZM247.874,36.264c.772,1.555-2.646,2.23-3.698,1.689.803-1.309,2.185-1.614,3.698-1.689ZM240.021,44.952c-.375.728-1.747,1.115-2.542.684.138-1.018,1.663-1.349,2.542-.684ZM229.737,62.551c-2.045.793-5.441-1.633-5.654-2.694l-.582-2.9c1.173.826,2.058,1.503,3.039,2.357h.001c1.501,1.307,4.47,2.743,3.196,3.237ZM221.78,50.975c.757-.048,1.191,0,1.915.102h0c4.561.642,5.492,2.542,3.883,2.323-3.083-.419-2.507-.044-5.798-2.425ZM230.805,60.274l-2.818-2.159c-.155-.119-.42-.387-.501-.498-.081-.111.127-.339.252-.397.125-.058.704-.036.818.068l2.528,2.31h0c.136.124.336.5.377.608.055.145-.504.185-.656.068ZM235.899,48.362c-2.282,1.146-4.782,1.292-7.406.934-.124-.411.232-1.5.657-1.625,1.283-.377,2.837.013,4.204.137.898.082,1.836-.318,2.545.554ZM235.052,27.127c.745-.881,7.06-6.041,8.261-5.14-.536,1.288-1.178,2.746-2.384,3.574l-3.356,2.306c-1.101.756-2.032,1.621-3.426,2.082l.905-2.822ZM235.508,45.614c.129.692-4.59.649-5.231.64l-7.313-.107c.638-1.077,8.587-1.604,8.761-1.557l3.783,1.024ZM233.74,40.45c-.475,1.195-5.885,3.681-6.832,2.294,2.258-1.254,4.497-1.858,6.832-2.294ZM230.996,35.087h0c-.434.76-.948,1.032-1.625,1.413l-4.603,2.588c.296-.389,5.233-4.409,6.227-4.001ZM224.444,22.356c.499-1.958,3.19-3.989,3.657-2.722h0c.688,1.865-2.385,3.89-2.795,3.98-.365.08-.961-.873-.863-1.258ZM223.864,30.201c.898.817.408,1.651-.241,2.478l-3.342,4.256c.706-2.503,2.106-4.54,3.583-6.734ZM191.532,26.969c-.687-.589-.562-1.599-.284-2.505.471.331.849.703.996,1.062.186.454-.246,1.478-.712,1.443ZM195.298,23.139c1.789.041,4.674,4.698,5.76,6.88h0c-1.583,1.015-2.916-.042-3.991-1.095-1.075-1.053-1.95-2.294-1.314-3.859l-.83-1.308c-.086-.136.213-.622.376-.618ZM192.098,43.451l.651-.146c1.045.439,1.788.667,2.884,1.38-.493.247-3.447-.581-3.542-.715-.08-.113-.126-.489.007-.519ZM184.529,33.687c.271.204.47.947.394,1.2-.401,1.336-3.024-.466-3.605-1.095.905-.895,2.149-.905,3.211-.105ZM182.423,37.1l1.122.42h0c1.154.432,2.106.939,2.836,1.666-1.741.094-3.517-.324-3.957-2.086ZM175.842,44.303c-.058-.168.513-.39.709-.353l1.874.353c4.083.769,3.928-1.111,6.225.415.181.738-1.399,1.78-2.064,1.318-3.594-2.498-3.563.368-6.266-1.03-.174-.09-.42-.535-.478-.703ZM177.066,47.702l2.877-.369,6.728.647h0c-.247,1.791-9.146,1.09-9.604-.278ZM177.683,57.145c-.193.439-.465,1.029-.685,1.271-.22.242-1.107.155-1.503.051.297-.94.912-1.525,2.188-1.322ZM183.696,58.571h0c-.906,1.284-9.06,5.963-8.411,2.607.123-.634.569-1.263,1.238-1.495,2.042-.707,4.473-1.519,6.391-2.078.345-.1.946.735.783.966ZM181.861,68.981c.956-.63,1.65-1.421,2.26-2.341l3.602-2.007h0c.494,2.031-3.195,4.826-4.455,5.825-.445.353-1.237,1.55-1.944,1.132-1.055-.623-.287-2.067.536-2.609ZM189.155,67.858c-2.158,5.474-3.284,5.466-7.178,7.851-.097.059-.793.102-.754-.003.051-.139.181-.553.266-.677l2.704-3.96c.773-1.132,3.022-3.615,4.962-3.211h0ZM186.458,52.064c-1.092.21-1.979.368-3.193.252.224-.652.75-1.455,1.204-1.53,3.104-.513,5.909-.714,9.132-.345h0c-2.445.863-4.734,1.159-7.143,1.623ZM197.007,62.558l-4.179,5.618c-.178.239-.86.319-1.08.146-1.565-1.233,8.053-11.273,10.067-12.086l-4.808,6.322ZM205.18,26.012c.269-.057.732.411.803.686l.513,1.984c-.78,3.085.344,4.112.605,6.732-1.26-1.011-3.71-9.023-1.921-9.402ZM207,75.037c.116-1.145.242-2.077.399-3.084.185-1.184-.303-2.563.997-3.416.412,1.339.755,6.419-1.396,6.5ZM209.653,58.472c1.081.425.966,1.558.927,2.201-.018.299-.585.551-1.132.716l.205-2.917ZM211.902,68.595c-.194.142-.854.205-.972-.006-.242-.431-.61-1.314-.758-1.762.587-.212,1.402.105,1.84.646h-.001c.178.22.085.98-.109,1.122ZM212.559,23.196c-.36-.701-1.557-2.192-.426-2.857.912.786.951,1.875.426,2.857ZM179.899,105.241c1.516,2.337,2.337,4.811,2.729,7.802-1.582-.144-4.596-6.301-2.729-7.802ZM173.815,122.057l-2.096-1.221c-1.017-.593-1.904-1.252-1.625-2.442,1.693-.214,2.756.216,3.414,1.634.302.651.863.854.307,2.029ZM170.214,149.667c-1.063.693-2.402,1.447-3.633,1.822l-2.024.617c-.189.057-.825-.013-.762-.179.391-1.024,2.991-2.176,4.294-2.805l3.071-1.483h0s-.947,2.028-.947,2.028ZM170.772,137.52l-3.389.836c-1.239.306-2.236,1.003-3.357-.3.705-.456,1.592-.999,2.314-1.089l4.204-.526h0c.228-.028.649.16.782.293.133.133-.35.735-.555.786ZM172.204,140.896c-.156.029-.005-.796.23-.845,2.316-.486,5.694-1.276,8.398-1.559h0c-1.765.978-3.815,1.651-5.867,2.2-.519.139-1.68.007-2.211.104l-.551.1ZM173.138,160.128c-.352-.254-.2-1.26.239-1.637l3.236-2.782c-.144,1.628-1.559,5.797-3.475,4.419ZM175.301,148.395c2.446-2.283,5.109-3.608,7.652-5.203-2.059,2.417-4.603,4.222-7.652,5.203ZM184.519,165.304c-.371.172-1.398.171-1.525-.233-.106-1.573.467-3.371,1.689-4.318l.311,3.044h0c.062.607-.021,1.296-.475,1.507ZM189.813,150.32h0s-.584.369-.584.369c-1.132.717.168-2.951.879-2.851.034,1.029-.114,1.583-.295,2.482ZM189.342,110.976c.917,2.441,1.598,4.674,1.921,7.26-1.473-2.159-2.191-4.766-1.921-7.26ZM216.773,121.538c.481-.012,1.404.366,1.176.719-2.238.596-3.472,3.337-5.581,2.569-.438-.159,1.557-3.216,4.405-3.288ZM208.028,115.624c3.428-2.52,1.828-3.936,5.781-6.086.727-.395,1.377-.645,2.308-.508-.642,1.743-1.55,2.857-2.907,3.845l-2.652,1.93c-1.095.797-1.343,2.404-2.734,1.856-.234-.092,0-.887.204-1.037ZM209.877,121.41h-.001c.024.486-.152,1.108-.452,1.265l-6.612,3.463c1.386-1.206,5.142-5.463,7.065-4.728ZM206.604,104.006c.239-.138.848-.131,1.077-.056.23.075.362.849.217,1.087l-1.806,2.956h0c-.903.44-.85-3.198.512-3.987ZM204.06,101.972c1.548,1.155.793,3.18-.151,4.179h0c-.821.868.173,1.231-.905,2.005-.179.129-.66-.023-.766-.216-.442-.807,1.062-4.641,1.822-5.968ZM194.625,152.948c-1.092,1.116-.856-6.658-.439-7.23.58,1.724.835,3.638,1.178,5.699.061.367-.486,1.272-.739,1.531ZM196.255,102.445c-1.667.555-1.783-3.614-1.796-4.736-.014-1.179.103-2.812,1.142-3.507.713-.477,1.651.769,1.748,1.385l.392,2.481h0c-1.012,1.466-.687,4.111-1.486,4.377ZM197.732,114.886l-.955,3.201c-.222-1.371.003-2.651.317-4.207l.646.334c.131.067.041.509-.008.672ZM197.992,109.938c-.068-.675.681-3.336,1.328-2.593.68.78.471,1.497.065,2.345-.151.314-.875.435-1.393.248ZM201.114,155.007c-.472-.031-2.523-4.457-1.39-3.64.769.554,1.732,2.771,1.39,3.64ZM201.135,147.798c-.787-.685-1.271-1.516-1.597-2.477,1.13.227,1.983,1.017,1.597,2.477ZM206.239,113.359c-.141.748-.599,1.443-1.188,2.208l-3.612,4.687c.133-1.365,2.851-7.114,4.8-6.895ZM209.784,132.197c.698-1.416,2.44.844,3.763-.826-1.704-1.578-3.556-.937-5.378-.694l-6.112.814c2.513-1.592,5.499-2.08,8.367-2.657,2.279-.458,3.117,1.538,5.868,3.088-.72.725-1.612.833-2.632.688h0c-2.11-.3-3.428.8-3.876-.413ZM198.082,193.165c.007-.173.04-.47.08-.746l5.434-.776c-1.78.95-3.355,1.082-5.514,1.522ZM205.311,181.361c-2.335.246-5.481-.546-7.67-1.371,1.59-1.23,2.992-.264,4.496.157.689.193,1.995.307,2.89.44.177.027.446.757.284.774Z" fill="#113313"/>
  </g>
</svg>