<?xml version="1.0" encoding="UTF-8"?>
<svg id="Layer_1" xmlns="http://www.w3.org/2000/svg" width="338" height="204" version="1.1" viewBox="0 0 338 204">
  <!-- Generator: Adobe Illustrator 30.2.1, SVG Export Plug-In . SVG Version: 2.1.1 Build 1)  -->
  <g id="MTNvRL">
    <path d="M218.893,117.77l1.925.549.167-1.28c.041-.313-.69-.819-.981-.974l-1.721-.917-1.109,1.802,1.438-.294c.259-.053.166.94.281,1.114Z" fill="#113313"/>
    <path d="M338.005,197.725c-.396-.483-.791-.966-1.187-1.448-6.223-7.565-11.386-15.591-15.879-24.285-3.753-7.261-6.62-14.537-9.575-22.115l-6.242-16.007c-1.837-4.712-1.088-10.307.506-14.869.478-1.367,1.936-.101,2.559-.031l2.725.307c.513.057,5.308.315,4.771-.314l-.488-.571,2.149-.462c.202-.044,4.836-1.181,3.868-1.446l-.526-.144c-3.975-1.088-1.887-2.988-7.733-1.732l5.56-2.342c2.809-1.183,2.041-1.75,5.75-1.799-1.816-1.787-4.27-2.389-6.65-2.232l.504-.899-3.715.422c-.292.667-.243.417-.052-.334-1.841.538-3.03,1.53-4.605,2.926-.375-1.371,1.774-2.898,1-4.346-9.496,6.464-5.29,10.091-5.666,11.712l-1.758,7.587c-1.436-7.46-1.703-14.938-.876-22.419.368-3.331,4.822-1.532,8.695-5.237.234-.599.24-.853-.145-.556l-.904.022c-.076.002.274-.251.349-.273,4.336-1.26,3.364-5.031,7.629-7.785l-3.197.044c-1.467.02-2.405.251-3.951,1.304-.057-.062-.204-.222-.425-.462-2.52.704-4.225,2.985-5.588,5.392-2.451-1.891,3.052-3.783,4.519-6.427,1.499-2.702,1.822-5.908,1.841-8.861l-1.775,2.508c.145-.994,1.762-7.851-.515-7.463l-.593-4.435-2.201,2.505c-.769.876-1.379,1.866-1.795,2.827l-.665-.289c-.093-.04-.398.346-.447.489l-1.874,5.496-.919-1.891c-.371,1.303-.727,2.382-.977,3.547-1.174,5.475,3.911,9.329.977,11.686.206-2.897.307-5.009-1.712-7.155l-.479,1.649c-.349-.582-1.038-1.78-1.501-2.223l-3.617-2.81.845,5.884-.498.516c-.342.354,1.395,2.474,1.947,4.205,1.683,5.283,6.07,4.705,5.806,8.205-.57,7.566-.189,18.006,1.492,25.316l-5.601-10.72c-1.373-2.628,2.437-3.089.025-9.44-.642-1.692-.772-2.122-1.796-3.671-.086-.13-.478.26-.457.42l.134,1.026-.814-2.343-.185,3.011c-2.757-2.093-1.674-3.847-4.023-5.41-4.938-13.165-9.046-26.302-12.787-40.033,1.497,1.449,2.833,1.956,4.569,2.354,2.93.672,5.969,1.612,8.834-.121-6.587,1.272-6.427-1.817-9.283-2.621l-3.198-.9c3.953-1.642,13.056-6.927,15.783-9.333l2.134-1.884c.238,1.765-.212,3.166-1.739,4.345l4.011.153.617-1.322c1.993.266,3.324-.914,3.044-1.405l-.529-.926,1.119-.935-.8-.298c-.124-.046-.072-.489-.067-.671l.017-.617c.003-.088-.148.114-.374.391-.091.044-.37.177-.342.164.238-2.299-2.009-2.123-1.016-2.768.313-.204.871-.559.711-.457l.475.712c.888-.698,1.017-.781,1.249-1.286l1.059-2.305c.807-.49,1.947-.869,2.284-1.77-4.163.185-3.379-.744-3.591-.817,1.058.365,3.115-.219,4.1-.509l-.131-.605c-.019-.09.338-.233.444-.248,1.03-.141,1.713-1.617,1.227-2.249l-3.322.486-.074.712c-.018.174-.03.301-.02.209l.919-.479c.288-.151.528.775.258.938l-.936.566.184-.702-1.36.274c.345-.655.539-.946.589-1.242.05-.296-.629-1.129-.484-1.391.388-.702.864-2.481.406-3.168-.077-.115-.639-.293-.772-.264-.133.029-.288.304-.213.417l.34.511c-.393.534-.813,1.226-1.189,1.976l-1.2-.02c-.668-.011-1.973.231-2.601-.194-.227-.221.626-.932.884-.775l.973.593-.118-1.262,2.536-.146c.073-.353.15-.553.061-.537-.094.017-.562.088-.652.091l-1.467.054c-.201-.627-.243-.887-.479-.998-.251-.117-.705-.379-.77-.177l-.358,1.103-1.592-1.147,1.046-1.531-1.18.205c-.202.035-.192-.577-.159-.779l.155-.955-1.154,1.931c-1.937,1.371-2.19,1.892-4.559.314l1.695-.746c.346-.153-.089-1.093-.456-1.457-.399-.395-2.078.253-2.522.426-.165.064-.055.685.02.863l1.233,2.936c-.517.226-1.275.399-1.167.598l.545,1.008c.06.11-.114.508-.221.444l-.647-.384c-.362-.214-.301-1.126-.119-1.566.21-.509-1.71-2.669-2.634-2.069l-.551,1.75,1.984-.705.764,2.741c-.745-.037-1.409.873-1.654,1.714l-1.302-.851-.55-.347c-.706-.446,1.293.093,1.264-.382-.601-.443-1.341-1.001-1.299-1.4l.152-1.439c-.365-1.019-.39-1.782.201-2.937-.462-.415-1.473.744-1.16-.301l1.243-.899c-2.384-.452-1.662,3.661-2.044,3.584l-.698-.141c-.153-.031-.005-.401.08-.534l.351-.547c.186-.291-1.491-.737-1.247-1.102l.737-1.101-1.229-.388c-.343.382-.826,1.013-1.158.935-.277-.065-.91-.275-1.205-.387-.179-.068.124-.852.316-.89l.768-.153-.003-1.558c-.642.252-1.451.524-2.084.698-.065.01-.12.019-.175.028l.63.215c.263.09-.024,1.538-.395,1.483l-1.273-.19-.393-.248.487-1.347c.03-.084.008-.401-.072-.364l-.448.207c-.262.447-.707,1.158-1.132,1.705l.826-3.482c-.139-.059-.562-.249-.571-.146l-.048.554c-.014.158-.053.708-.205.715l-.842.039-.325,2.742-3.168.228-.061-1.105c-.009-.149-.473-.313-.651-.428l-.227.844c-.028.104-1.776.522-1.217.672l.864.232c-.156.215-.874.719-1.307.868-.33.113-.879-.346-1.418-.707l-.121,1.609-2.186-1.399c.081.502.899,1.83,1.497,1.67l1.059-.284c.187-.05.113.575,0,.732l-.513.712c.991-.267,1.953-.216,2.932.728-1.185,1.056-.753-.856-3.044.874-.181.138-.823.337-.915.138-.069-.149-.145-.554.01-.609l.819-.294c.131-.047.118-.614-.012-.59l-.701.127c-.359.065-.917.46-1.263.796l-.645.234c-.057.413-.122,1.094-.376,1.12l-.976.102c.092-1.21.266-2.118-.601-2.687l.053,2.298-1.693-.467-.19-2.161c-1.009.687-.857,1.753-.385,2.212-.633-.31-1.424-.599-1.571-.473l.744,1.158c.143.222-.686.857-.656.67-.765-1.112-.426-2.902-2.294-2.719l1.126,1.447-1.521-.647,1.95,2.336c-1.241-.439-2.164-1.107-2.819-1.785l-.061,1.522,2.175.635-.301,2.824-1.438.313-.911,2.298,1.32-1.62.986.343c.63-.013,1.722.413,1.78.874-.593.689-1.195,1.761-1.715,2.011l-2.13,1.023c-.085.041.225.5.262.413.037-.087.279-.429.37-.445l.999-.179c.196-.035.481.713.305.805-.583.306-1.652.623-2.417.226-.349-.181-.895-1.256-.748-1.568,1.883-1.893-.661-3.118,1.032-4.934.061-.066.022-.473-.059-.432l-.433.22-1.023.523c-.241.122-1.076-.319-1.039-.586.019-.135.163-.657.165-.689.002-.025.566.229.623.253.073-.254-.037-.687-.294-.698-.26-.011-.946-.11-.931.096.286,3.816-1.007.82.276,4.809l-1.848-2.651c-.098-.141-.383-.393-.51-.482-.083-.059-.162.109-.154.213l.043.554-.916-.38c-.389-.438-.366-.376.01.143l.429,1.42-1.699-.553-1.112.854c-.712-.347-.546-.27-.472-.185l.525.597c.34.265.668.511.267.042.572-.483.865-.681,1.114-.583.249.098.954.643.78.844l-.851.987c-.651.122-.474.089.264-.048.109.158.364.449.27.548s-.456.337-.552.24l-.425-.432c-.4-.411-1.197-.953-1.282-.642l.476,1.134c.076.181-.469.415-.571.537l2.039,1.641-.311-1.944,2.859.027c0,.221-.385,1.271-.711,1.424l-.969-.072c-.155-.011-.171.522-.063.633l.691.713-1.399-.354-2.653-.512c.213.361.574.801.508,1.076l-.249,1.032,1.363,2.048-.243-1.266c-.023-.123,3.731-.725,4.256-.507l-.794,2.576c-.079.058-.727.212-.753.053l-.135-.823c-.041-.249-.352-.609-.748-1.045l.049,1.842-1.131.4c.848-1.979-2.71-.504-2.225-2.972l-1.154,1.07,1.207.729c.19.115-.137.873-.358.844l-1.001-.13c-.187-.024-.883-.153-.828.025l.297.955-.86-.476-1.519.95,2.905-.237c-.675,1.239-1.812.596-2.923.851l1.321,1.545-1.198,1.92c1.024.714,1.209,1.856.94,2.965l-1.589.598-2.232-1.837,2.571-1.505-1.162-.092c-.396.571-.748.918-1.47,1.513-.66.544,1.638,2.67,2.653,2.265.521-.208,1.682-.453,1.898-.088l.862,1.458c1.297-.206,2.847-.401,3.978-.397l-.842-1.031-.829.534c-.166.107-.485-.255-.579-.431-.389-.724,2.497-.943,3.262-2.023l-1.22.092c.178-.568.352-1.126.505-1.413.302-.568,2.71.716,3.624.202l-3.113-1.202.969-.993c.249-.256-.556-1.943.384-2.151l.967-.214c-.26-1.233-.018-2.61.803-3.748.303-.029,1.387.246,1.458.627l.276,1.483-1.743-.524,1.614,1.726-1.432.249-.091.682c-.011.081.114.131.182.086l.758-.502c.1-.066.216.225.202.342l-.062.532-.738,2.412.944-1.088c.184.945.261,1.344.26,1.337,1.255-.458,1.422-.262,2.287.002l3.383,1.031c-.234-.433-.294-1.313.113-1.499.283-.129.801.034,1.213.207l7.793,3.278c-2.862-.119-5.406-.994-8.299-1.998-.696-.126-.382.148.051.419l5.988,2.308c-5.103-.197-8.957-2.612-13.862-3.204l2.36,1.107-.673,1.142c-.384.651.044,2.402.108,3.351l-.711-1.338c-.048-.091-.267-.32-.247-.223.02.096.124.532.148.632l-1.391-.179.895,1.346-1.862-.734c-.487-.191-1.294.22-1.673.782l-1.591-.12.56,1.04c.091.169.558-.215.735-.288l1.354-.56c-.209,1.059-.538,1.273-1.301,2.026-.234-.05.026.006.469.1l1.857,1.079c.145.085.104.697-.042.766l-.595.283,1.509.819,1.535.054c.112.251.075-.161-.004-.541.377-.783.626-1.654.678-2.716.972.586.349,2.204.135,3.369-.082.445,1.404,1.032,1.696.665.665-.836.141-2.121-.808-2.519l-.537-2.467,1.831,2.617c.483.69,1.851.667,2.121.117.596-1.213-2.596-.592-3.258-3.142,2.172.196,4.09.212,6.17.001l11.368-1.153c.311.205.412.224.321.277l-.44.256-5.629,3.256-3.856,2.039c6.331-1.812,3.368.026,9.97-4.022l-2.973,6.913,2.206-2.12c1.55-1.488,2.1-3.465,2.882-5.573l6.286,20.897,6.126,18.055c.101.476-.157.138-.431-.285-1.129-.804-2.427-1.883-3.676-2.398l-2.716-1.119c-.189,1.554-.063,3.236.355,4.708-.157.131-.72.398-.626.573l.362.674,1.442,2.683-1.563-.824,1.082,1.715-2.039.061c1.195,1.504,2.047,2.577,3.147,3.652l3.01,1.289-1.858.209-.538.452c.461-.388-4.063.543-4.985.472l3.162,2.602c.915.753,2.202,1.607,3.165,2.238,1.69-.169,3.27-.649,4.94-.003-1.363.152-2.664.3-3.996.597l-1.084,1.207c-.172-.348.005.13.09.331l5.135,1.847c1.251.45,3.984,1.053,5.631,1.139,3.764,4.321,6.444,9.154,8.557,14.52l8.844,22.464c5.671,14.406,13.564,27.546,23.172,39.323-2.973-2.139-5.704-3.683-8.369-5.985-12.463-10.764-23.485-22.786-33.824-35.578.208-1.358.177-2.455-.003-3.693l-.645-4.443-2.508,3.959-1.594-1.856c.448-.427,1.133-1.063,1.234-1.484,1.919-8.007-.531-3.964-.22-9.498l.045-.805c.009-.16-.46-.108-.582-.011l-.605.479-.242-2.52c-.808-2.011-.838-3.531-1.137-6.026l-1.955,2.772c-1.292,1.831-2.133,3.409-3.069,5.621l-1.823-3.705-1.005,3.684c-2.157-2.55-4.528-4.808-6.101-7.713-2.256-4.166-3.736-8.547-5.156-13.018-.349-1.101.405-2.523,1.428-2.664,1.497-.205,2.508-.774,3.768-1.71,1.805-1.341.049-1.508,3.502-4.659l-1.601-.013c2.154-1.687,4.528-6.35,3.814-8.605.002.008-.231.146-.358.224-1.037,1.25-2.291,2.011-3.714,1.92l-2.439,1.64,1.444-2.722,1.1-2.366c-.148-2.344.454-5.471,1.504-7.993-2.576.628-4.483,2.407-6.04,4.311l-.605-.808-2.721,2.862c-.575.604-1.107,2.321-1.154,3.134l-.189,3.251-1.531-3.558c-.247-.573-.411-1.964-.815-2.379-.553-.569-1.002-1.007-.963-1.786.059-1.159-.722-1.321-1.233-1.948-.899-1.103-1.284-2.614-2.158-4.028l-1.092,6.105c-.026.144-.032.6-.037.726-.005.125-.193-.009-.801-.276.004,2.117.467,4.09,1.281,6.436l-1.402.045,1.483,3.484c-.148.02-.509.648-.422.835,3.008,6.413,7.318,5.185,8.507,8.661l4.052,11.848c-7.342-8.835-13.885-18.166-19.778-28.057-.855-1.435-1.077-2.694-1.077-4.233,0-4.964,1.776-2.524,1.79-8.083l.003-1.068c0-.187-.57-.329-.8-.463-.257-2.466-1.222-5.035-3.083-7.003-.046,1.135.026,2.509-.248,3.583l-.677,2.652c-.521-.8-.164-1.913-.294-2.762-.575-3.769-5.839-6.328-6.028-5.788l-.249.711-2.875-1.412c-.315.456-.413.699-.621.642l-.967-.265c-.209-.057-.697-.164-.888-.204-.187-.039.073.782.089.983l.377,4.641-1.321-.213c-.319,3.529,1.157,6.021,3.329,8.686l-3.9-1.586c1.026,2.062,2.347,3.861,4.252,5.273,1.062.787.848,2.639,4.288,2.302,2.635-.257,6.241,1.628,7.392,3.489l7.513,12.141,11.25,15.846-5.923-4.479c-4.275-3.232-.92-3.413-3.618-7.998-.659-1.12-1.361-2.106-2.53-2.818l-4.931-3.005,1.041,2.818c-.238,4.009,3.974,4.004,4.33,6.75l-6.582-4.705c-3.272-2.339.059-3.53-5.13-7.938-1.423-1.208-2.364-2.576-4.261-3.131l.437,2.557-5.336-4.336-22.748-19.353c-2.864-2.436-5.462-4.655-8.129-7.485l6.176,1.463c3.067.727,6.297,1.856,9.158.156-8.264,1.384-5.151-3.123-14.316-3.4,5.134-3.157,7.006-3.623,9.926-8.605l1.886-3.218c-2.857,2.309-1.987,4.082-5.922,5.889-2.594,1.191-4.724,3.014-7.196,4.726l5.729-8.702c2.673-4.06,7.794-12.718,8.827-17.575,1.238,1.088,2.22,2.682,1.209,4.297.359.57.455.938.381,1.752l1.386.394c-.315-1.186-.086-1.648.783-2.343l-2.867-4.487c1.346.52,2.379.999,3.862,1.765l-1.708,1.259,1.928-.584c.414-.125,1.366.134,1.937.25.273.056.464-.822.342-1.008-2.162-.36-4.34-1.247-6.069-2.504,1.302.251,2.923.302,3.674-.554.283-.323-.291-1.246-.635-1.707l1.84-1.252c.205.838.168,1.795-.321,2.398.091.217.607,1.031.362,1.308l-.982,1.111c.704.481,1.942-.372,1.714-1.103-.106-.34-.636-1.353-.371-1.588l.883-.781.178-1.63c-.171.003-.894.127-1.041-.182l-.596-1.253c-.088-.184.075-.937-.127-.925l-.925.057c.023-1.203.497-1.89,1.636-2.694-.865-.142-1.818.084-2.066.66-.669,1.551-.414,3.556-1.01,2.294l-.257-.544-1.47-.81c.76-.652,1.386-1.023,1.227-1.862l-3.492.48c.703,1.045.922,1.437,1.163,2.48l-1.695-.125.495-.871c.065-.115-.409-.146-.566-.146l-.394-.002c-.073-.291-.3-1.032-.549-.933-.208.083-.526.457-.742.711-.153.18.486.399.756.597.147.781-3.134,1.077-3.614.484-.182-.224-.398-3.35-.342-4.337l.21-3.673,3.66.01c.949.002,1.908.107,2.949.255-1.522,4.525-4.31.655-6.221,4.134l.827.019c.199.005.435-.787.637-.837l4.515-1.113,1.043,1.736.531-.997c.102-.192.801.265,1.03.351l1.96-1.153c.417-.246,1.669-.346,1.808-.803l.584-1.922.56-1.498-1.128,1.199-4.145.049c.821-.545,1.27-.618,2.124-.87l1.027-1.83c1.355.009,2.345-.583,2.744-1.649.364-.975.422-2.326-.52-2.845-.463,1.427-1.015,2.478-2.488,2.832.039-.16.1-.426.218-.518l.695-.541-.826.193c.517-.582.944-.832.501-1.436l-2.423,2.489c.918-2.642.576.613,1.925-4.328.035-.126.067-.595-.048-.644l-.62-.262-1.464,2.322c-.599-1.862.593-.814-.125-2.503-.573-1.349-1.226,1.535-.511,3.263l-1.652.382c.122.984.256,1.709.503,2.637l1.082-1.632c.181.454.232,1.442-.053,1.693-.41.36-1.722.037-1.811-.465l-.316-1.782c-.32-.014-1.243-.146-1.331-.49-.359-1.4.95-1.939.665-3.18-.794.906-2.019,1.186-2.915.48l.162-1.752-1.171,1.574c-.098-.01-.467-.313-.406-.446.176-.38.641-1.012.538-1.01-.012,0-.425-.057-.537-.071-.109,0-.266-.003-.333-.004-.667,1.065-1.134,1.69-1.959,2.747-.173-.196-.517-.637-.35-.759l.855-.624c.248-.18.569-.462.467-.661-.076-.15-.437-.665-.553-.544l-.752.782c-.203-.163-.606-1.071-.633-1.486-.066-.99,1.696-1.888,1.091-2.027l-.656-.151c.297.068-1.541,2.228-.33,4.7l-.559.252c-.401-1.464-.857-2.63-1.737-3.444l.342,2.189-1.619-.427c.1,1.015.882,1.766,1.989,2.002l-.031,1.18c-.006.243-.876.305-.979.262-.19-.487-.421-.996-.702-1.454l-1.122-1.826c-.083.071-.204.173-.404.344l-1.762-1.35c-.117,1.652,1.627,1.5,2.308,2.38l1.498,1.935-1.693.895.437-.819c.068-.129-.185-.663-.315-.591l-.817.454c-1.623.902.772-1.659-.217-2.109-.411-.187-1.516.368-1.431.81l.333,1.732c.026.135-.33.438-.359.304-.029-.134-.189-.565-.304-.642l-2.289-1.532-.113.627c1.278.265,1.809.846,2.158,2.315-.604-.03-1.896-.098-2.532-.156-.262-.023-.624-1.108-.359-1.123.2-.011.638-.004.819.086l1.238.62c-.762-1.297-1.734-1.602-2.921-1.112-.219.021-.677.009-.645.171.032.162.23.649.345.785l1.804,2.143.966-1.01c.413-.432,1.157,2.141,2.13,2.752.174-.08-.139.067-.217.098l-1.903-.385-.488-.099c-.103-.022.188-.344.27-.415l.664-.569c.089-.076-.339-.228-.42-.144l-.467.485-2.69-.103c-1.12,1.146-.399,3.715-1.615,3.796-.937.063-2.642-1.065-2.84-1.712.652-.876,1.071-1.453,1.458-2.129l.48-.838c.107-.186-.588-.696-.615-.644l-1.302.891c-.169.116-.647.322-.559.446l.531.745-.657.016c-.537.013.167-1.472-.579-1.516-.153-.009-.583-.037-.491-.031.823,1.375.313,4.15.073,4.063l-.913-.329c-.166-.06.047-.653.124-.827l.4-.9c.091-.205-.434-.736-.61-.875l-.353,1.558c-3.164-.166-.747-4.56-3.646-5.23-.552-.128-1.027,1.338-.794,1.687l.753-.963c.16-.205.876.28.945.529.069.249.058.912-.017.838-.788-.039-1.658.04-1.658.436-.001.467.066,1.153.125,1.539l.143.938c.123.805-1.07-1.078-1.556-1.773l-1.737-2.483c-.165-.047-.454.834-.343,1.044.085.161.227.124.758.128.426.604,1.019,1.841.967,2.429l-1.683,1.614-1.161-1.429,1.314,2.254c.913-.255.786-.04.132.465l-2.523-1.935c-.161-.123-.172-1.06-.366-.997l-.987.32,3.278,2.987c-.339.644-.836,1.468-1.275,1.631-.456.169-1.402-.035-1.997-.292-.86-.371-.981-1.17-1.484-2.403l-.096,1.741,2.318,1.925-2.518.06c.07.646.211,1.355.067,1.712-.124.306-.974.421-1.543.604.173.09.814.195,1.394.252.246.066.689.967.512,1.262l-.728,1.208c-.251.417-.248,1.395-.614,1.352-.36-.043-.87-.28-1.386-.577.103-.209-.376.263-.27.403l.522.69c.101.133.004.54-.044.766l-1.311-.792c.198-.589-.681-1.998-1.141-1.236l-.695-.507-.29-2.883c-.437.24-.676.45-.634.647l.213.996-1.521-.935c.478,1.059,1.024,1.746,1.702,2.249l-1.635.511.411-1.338c.08-.26-1.083-.651-.781-.502l-.606,1.899c-.084.651,1.527.548,2.311.217.548-.232,1.313,1.447.943,1.737-.819-.296-1.49-.439-1.683.085.885-.12,1.17-.122.494.761-1.495-.791-2.619-2.102-3.117-3.744l-.557.873c-.066.103-.356.071-.753.107.161.72.37,2.177.915,2.639.673.57.79,2.081-.256,2.36-.863-.587-1.867-1.858-2.989-1.578-.195.049-.663.369-.595.545l.334.861c-.412.118-1.083.388-1.475.602l1.541.604c.429.168-.061,2.338-.779,2.245-.408-.052-1.408-.508-1.303-.601l1.019-.958c-1.198-.007-3.971-1.342-3.723-1.783l.598-1.064c-.508.048-1.492,1.213-1.095,1.607,1.307.735,2.692,1.086,2.836,2.686l-1.683.36c-.167.036-.087.818.067.733l.579-.321c.299-.166.945-.408,1.109-.19.829,1.105-1.367,1.631-.955,2.534l1.049-.488c.166-.077-.127-.455-.164-.806l2.883.857c.156-.067-.081.596-.301.692-.165.072-.708.274-.916.395-.541.315-.113,1.951.301,2.175l.092-1.302c.016-.217.622-.52.861-.545l2.604-.275c.436.5.627,2.04.15,2.13l-2.124-.065-.259-1.334c-.36,1.09-.571,1.502-1.095,2.159-1.101,1.38.069,3.021,1.066,4.215.66.79.113,2.33-.597,3.056l-.505-2.75-.528,1.791-.739-1.751-1.271-.025c-.3-.006-.483-.876-.33-1.053.688-.461,2.074-2.988,1.753-3.595-.219-.415-1.284-.975-1.565-.672-2.455,2.643.068,7.17-1.727,6.053-.092-.057-.168-.442-.156-.568l.252-2.535c-.438.269-1.354.597-1.427.242-.08-.388.031-1.13.19-1.398s.952.264,1.411.504c.251-1.299.523-2.362.921-3.523l-.741.224c-.105.032-.171-.053-.147-.172l.174-.854-1.396,1.321.71.382c.122-.025.042.622-.168.705-.21.083-.931.168-1.144.086-.52-.201-.867-1.538-.826-1.942l1.403.755-.585-2.264c-.195.156-.493.589-.604.46l-.77-.9-.178,1.431-.692-.737c-.078-.084-.251.085-.502.254.959,1.536,2.132,2.934,1.73,5.096-1.243-.336-2.111-1.102-2.78-1.96.089.762-.584.79-1.012.506l-.86-.571,1.106,1.597-.543.961c-.087.153.493.329.66.261l.593-.242c.175-.071.598-.194.775-.24.177-.046.356.636.195.724l-.859.468c-.502-.416-.442-.265-.161.229.139.325.562.856.338.944-.222.087-.844.218-1.002.106l-1.385-.981c.232.718.388,1.334.383,2.188-2.765.067-3.137-1.088-4.843-1.229-.1-.008.229.358.315.411l1.955,1.206c-.12.715-3.194-1.21-3.256.176-.067,1.495,1.586,1.697,2.552,1.936l-.195.911c-.039.185.715.241.902.22l.87-.097c.124-.014-.223-.551-.406-.929-.051-.015.421.127.682.205.183.054.137.672.027.842l-1.455,2.262-2.842-.132c.673,1.493,2.115,1.13,3.449.289l1.687,2.173-2.943,1.621c.415-.057,1.232-.278,1.782-.51.279-.118.75.691.543.926l-.677.768,1.189-.289c.208-.051-.012-.73-.066-.979-.038-.174.278-.734.433-.651.155.083.534.275.458.434l-.254.533c1.142.119,2.125.288,2.94.697-1.698.037-1.676,1.385-2.324.966l-1.223-.791c-.371.796.947,2.933.32,3.455-.543.452-2.324.229-2.111.672l.586,1.221-1.958.99.865-2.361-1.388,1.461-.395-1.272-.807,2.01-1.038-4.553c-.896,2.4.721,3.979,1.079,6.094-1.231-1.296-1.764-2.666-3.005-4.128.387,1.738,1.057,3.161,1.634,4.856-.997,1.168-2.077-1.41-3.342-1.626.517,1.31,1.287,1.551,2.712,2.748-1.255.279-2.423.182-3.955-.028.306.474,1.14.991,1.659,1.059-.073.146-.4.819-.209.861l.699.154,2.253.499c.227-.428.317-.784.497-.796l.76-.053c-.151-.325-.398-.816-.327-1.046l.313-1.01,2.278,2.194-1.778-.812.267.689c.055.141.568.526.433.586l-.724.322,1.538.685-1.621,1.45-1.593,1.573,3.161-1.903-1.399,2.603-.664-.501c-.143-.108-.832.557-.662.614.127.043.561.384.488.495l-.687,1.048c-.53-.356-.831-1.13-.775-1.917-.263.138-.927.409-.814.64l.673,1.384c-.48.195-1.362-.514-1.614-1.208l3.103-3.096c-1.008.372-1.42.827-2.185,1.36l.27-1.156c-.984.681-1.493.862-.602-.047,1.226-.752,2.168-1.054,3.466-1.388-.5-.099-1.458-.275-1.903-.237-1.228.126-1.838.046-3.278-.256l.584.944-1.697,1.103c.352.15.902.249.925.486l.089.919-.777-.245c-.095-.03-.253.311-.244.34l1.178,2.389c-1.109.529-1.73-.062-2.466-.653.598,2.063,1.4.59,3.926,1.307l1.625.462c.083.039-.06.862-.373.978-.313.116-1.126-.109-1.411-.282l-.625-.379c-.109-.067-.195.461-.076.51l.877.362-1.532.862c.942.388,1.845-.149,3.132-.561-.581,1.758-1.955,1.596-3.614,1.604l.731.878c-.3.92-1.199,1.357-2.289,1.433.281.723,1.748,1.232,2.395.606l2.429-2.347,1.654-1.1c.168.082.781.816.654,1.045l-.544.983c-.134.242.601.726.854.607,1.192-.564-.999-1.481,2.859-2.486l-.29,1.239,1.261-.958c.158,1.224,2.297,1.374,2.322,2.701.01.488-.324,1.293-.515,1.87.677.486.852,1.664.093,2.389-1.146,1.095-2.717-3.451-4.678-2.916,1.048.88,2.02,1.779,1.619,2.927l-3.705-1.681.034,2.219,1.536,1.507c-.037.069-.094.175-.196.364l-2.317-1.259c-.03.107.026.878.226,1.101.657.732,1.73.306,1.899.619l.301.558c.375-.385.988-.801,1.431-.802l2.063-.006c-.524.541-1.456.788-2.381,1.008l-.095,1.779c-.015.28.155.9.21,1.22l1.849-.988.786.568c.157.114.15-.782-.027-1.298.824.353,1.349.538,2.078.794l2.548.895-.607,2.396c-.044.174-.345.559-.465.667-.12.108-.282-.32-.326-.506l.776-1.866-1.823,1.387-2.349-1.281.984,1.228c-.883.578-1.421.962-1.826,1.588l2.392-1.289-.055,1.676.721-1.325c.672.173,1.523.833,1.933,1.366l.848-.193c.123-.028-.008-.513-.13-.483l-.676.165.987-2.674c.431-.191,1.475.254,2.097.699l1.069-.696c.664.424,1.609,1.505,1.097,2.516-.197-.095-.68-.616-.951-.952l-.302,2.73c-1.079-.159-1.042-.071-.699.278l1.898.1c.388.021,1.37-.606,1.278-.986l-.378-1.568c.892.617,1.7,1.719,2.517.569l-1.327-.242c.385-.499.586-1.181.363-1.764-.151-.395-1.013-.615-1.439-.467.394.331,1.188.601,1.003.898-.18.29-.663.877-.943.957-.28.08-.659-.847-.777-1.168l-.602-1.634c.565-.057.802-.012.842-.133l.266-.805c1.759.315,2.684,4.348,3.988,3.385.705-.52-.278-1.911.294-2.199l.944-.476c-.89-.035-1.579-.087-2.465-.269l-.998.181-2.801-2.97,4.168,1.95c.457.214,1.549.177,1.933-.091.336-.234.589-.966.926-1.488.373-.578,1.867-.568,2.792-.611l-.41-.81c-.086-.17.255-.663.295-.75l-1.001-.49c-.187-.091.023-.685.214-.724l2.844-.332-.449,1.692-.585,2.206c1.321.893,1.826-1.039,3.031-2.282.088-.091,1.781,1.299,2.182.68l.679-1.049-1.588.518c.308-1.379.365-1.839.157-2.778.47.573,1.386,1.686,1.891,2.112.276.233,1.314-.234,1.413-.567.079-.266.154-.823.079-1.16l-.413-1.863,1.714.476c-.584-2.897.274-.792.683-4.055-.851,1.53-2.063,2.051-3.724,1.617-.551-.144-1.258-.486-1.52-.724,1.408-1.047,2.056-1.232,2.21-2.608l-1.422.429c.127.549.056,1.649-.339,1.626-.912-.053-2.164-.235-3.19-.448,6.939-4.077,10.918-7.641,17.583-11.846,2.744-1.731,5.034-3.664,7.787-5.767-1.279,3.06-3.997,5.882-4.651,8.495-.703,2.804-2.019,5.163-4.347,6.961.221.087.584.274.695.154l.41-.445c4.553-4.942,6.049-5.899,8.471-12.737.627,2.397,1.223,4.41,2.078,6.544.401.999-.264,2.163.526,3.163,1.308-6.518.466-5.684-.61-11.792l12.686,10.897c7.672,6.59,17.277,14.586,23.794,20.388.66.587.515,1.64.896,1.942,1.326,1.05,2.314,1.921,3.49,3.095-3.441.489-2.829-5.415-10.718-6.803l.579,1.426-2.622-.545-.972.724-3.806-.478c-1.579,2.357-4.038.733-4.806,2.321l2.954,2.542c.273.303.645,1.062,1.026,1.216l4.622,1.869-1.815.751c6.352,3.38,6.624,2.476,12.616-.342,1.122-.528,2.8-.318,3.525.583-3.248.466-5.859,1.228-8.698,2.505l.379.67c-.848.366-1.941.778-2.353,1.248l-2.754,3.142c4.79-.894,4.511.118,9.428-.75,3.221-.569,5.778-3.186,8.206-5.288,3.965.344,7.828,4.024,10.835,6.787l-4.041-.993c-1.731-1.74-3.654-3.003-6.047-3l-1.199.823c-1.987-.256-3.798.184-5.31,1.459l1.16.428-3.369,1.549c-2.178,3.1-2.511,1.993-4.308,6.378,1.575-.974,2.941-1.138,4.351-1.693l6.925-2.725c-5.915,4.356-1.182,1.217-4.474,6.711,1.52.186,6.094-2.502,6.045-2.163l-.104.717c1.38-.833,2.618-1.802,3.795-3.014.708-.729,1.41-1.226,1.447-2.407.02-.635.378-1.601.827-1.857.386-.22,1.413-.3,1.833-.139l4.681,1.795c5.506,5.099,10.726,10.04,15.905,15.523,1.42,1.504-.316,5.162,2.435,9.058l3.961,5.608c.411.582.611,1.946.881,2.89-.683-.207-.822-.239-.522.153l3.188,5.369c-2.36-1.234-5.582-4.354-4.392-7.225l.913.451c-1.519-4.265-2.022-2.631-4.755-7.337-1.288-2.218-5.922-6.256-7.6-8.588l-.866.464-4.057-4.318.406,6.597c.05.81.522,1.893.815,2.759l-1.394-.226c.677,2.082,1.758,3.769,3.171,5.481l-1.568-.568c1.005,3.225,3.408,4.852,6.242,6.546l-3.754-.399c3.648,5.147,2.28,3.139,6.948,5.971,1.327.806,2.696.877,4.175.671,5.747-.801,6.693,2.09,9.077,4.052l7.778,6.4c-.73-.269-1.412-.487-2.037-.769-9.725-4.393-19.383-8.394-29.397-12.199l-34.644-13.165-6.649-2.508c-2.681-1.011-5.087-1.919-7.794-3.404,4.362-2.238,9.884-2.232,11.448-6.603-1.204.843-2.043,2.629-3.384,2.762l-4.794.476c-.871.087-1.726.496-2.615.739,3.329-4.565,4.867-5.645,4.612-10.939-1.523,6.087-3.738,6.822-6.75,11.536,1.203-9.39,1.584-16.836-.276-25.747l.083-.017-1.076-2.396,2.585-.396c.678-.104,1.632,1.041,2.015,1.639.294.114,1.273-.694,1.247-1.125-.024-.389-.472-.715-.878-1l1.049-1.276-.824.225c-.695.19.785-1.451.376-1.553l-.933-.231.043-2.682-1.063.113c.064-1.124.037-2.349-.365-3.239-.105-.234-1.082-.335-1.119-.086l-.131.878-1.658-.516-1.734,1.479.745-1.079-1.242.194c-.219.035-.134-.679-.201-.776-.32.569-.958,1.041-.999,1.439l-.173,1.663-1.377-1.18c.521.833.906,1.824.584,2.693l-.795-1.169c-.133-.195-.773-.059-.96-.005l.555,2.307c-.79-.769-1.617-1.373-2.53-1.611l1.362,1.841c-.374.281-.886.665-.745.81.171.176.855.36.994.162l.79-1.127c.279,2.151-.654,1.088-2.746,4.004l1.049.722-1.822-.201.661,1.926c.647.199,1.582.945,1.343,1.43l-1.21,2.46-.208-3.34c-1.169-2.04-2.042-3.91-2.98-6.219,1.155-.147,1.98.182,2.934.605l-.44-1.496c-.243-.826-.347-1.297.238-2.175.269-.403.736-.629,1.53-.647l.061-3.827c-1.512.737.496,2.033-1.635,2.826l-.416-1.528c.85-.683,1.269-1.301,1.269-2.248,0-.997-.711-1.813-1.51-2.232-.113-.06-.382.357-.29.447l.406.398c.189.185.595.827.377.963-.218.136-.77.264-1.025.234-.255-.03-.037-.829.136-1.269l-1.338.107c.344.72.625,1.539.574,2.162l-.462-1.02c-.084-.183-.997-.053-.964.146.072.44.391,1.414.629,1.933l2.305-.743c-.627,1.854-1.75.459-2.005,2.532.488-.023,1.118-.059,1.379.218.217.231.367,1.248.175,1.254-.578-.029-1.003-.057-1.482-.038-.319.013-.695.478-1.042.977-.333-.81-.179-2.137.257-3.099-1.74-.024-.567-.881-2.277-2.901-.521.63-.954,1.082-.086.892l.257,1.764-.427.361c-.081.068-.141.032-.175-.056l-.179-.462-.73-1.869c-.182.138-.319.763-.511,1.849l-1.104-.903,1.108,1.934c-1.849,2.108-3.201-1.24-3.876-.266l2.055,1.375c.224.15.772.444.645.619l-.468.641c-.239.328-1.245-1.387-2.628-.174l-1.441-.679c.289.461.912,1.381,1.44,1.541.567.173,1.727-.185,2.508-.4-.614.902-1.144,1.778-1.455,2.687-.253-.271-.752-.712-1.044-.6l-1.272.489.303-1.177-.948-.076c-.124-.01-.058.527-.002.641l.54,1.108c.123.251.841.142,1.267.019.408-.118,1.312.476,1.772.498l4.201.201c-.46,1.366-1.067,2.292-1.96,2.943l-.709-2.167-1.822,2.452c-.175.235-.525.576-.713.735-.141.12-.802-.456-.745-.631l.78-2.383c-.758-.84-1.556,3.899-1.673,1.817l-.073-1.301-.784,1.352-.524-2.883c-.04-.215-.239-.65-.347-.804-.108-.154-.603.104-.571.29l.143.82-1.281-.439c.081.303.299.871.525.951l.779.277-1.63,1.792-1.717-2.174c-.122-.155-.608-.482-.691-.325-.056.105-.167.395-.073.467l.41.317c.879.571,1.372,1.64.758,2.466l-.644-1.021c-.103-.164-.533.206-.52.398l.118,1.775c-1.207-.635-1.715-1.135-2.925-2.088.15.636.626,1.109,1.242,1.655.386.343.755,1.315,1.051,1.721.426.583.862,1.093.944,2.222l-2.113-1.029-.396,1.892c-1.508.726-1.75-1.092-3.506-1.02.326,1.381.867,1.516,1.808,1.787l1.147.33c.256.073.709-.753.985-.797.674-.106,1.842.602,2.221,1.567-1.164.034-2.291-.002-3.393-.139-1.333-.166-.187,1.867-1.083,1.281l-.607-.397c-.135-.088.373-.523.48-.673l-2.217-.491.19.8c.026.113-.241.44-.179.536l.304.469c.045.07-.066.166-.143.155l-.589-.086.012.584c.002.106-.248.454-.207.397.89-.499,1.454-.664,2.372-.683l2.289-.048c.23-.005.997.581.821.737l-.687.611-.382.493c-.087.113-.635.055-.623-.089l.065-.797-1.139-.059-.02,2.106-1.022-1.359c-.205-.272-1.071.096-1.207.293.4.271,1.211.399,1.115.63l-.358.856c-.077.184-.702.005-.944-.068-.218-.066-.537.395-.522.606.011.158.131.486.29.501l.955.089-.736,1.13c.469-.195.621-.331.804-.307l.618.08-.35-1.195c2.262.032,1.157.173,3.875,1.065l.759,3.087c-.504-.03-1.09-.297-1.094-.619l-.022-1.742-.421.829c-.134.264-1.396.211-1.171.652l.335.657c.423.832.747,1.494,1.298,2.389l-1.787-1.146c-.969-.621-1.457-1.566-1.288-2.645l-1.374-.746,1.125,1.856c.109.18-.872.478-.851.313-.731-.627-.916-.461-.523.121.403.41.86.852.823,1.143-.046.36-.182,1.111.064,1.186l.91.278-.262-1.475c1.422.841,2.267,1.588,2.993,2.794-3.269-1.726-3.776-.292-6.143-2.685.123-.365.488-.96.312-1.102l-.9-.726c-.473-.416-.561-.493-.021-.018l.542,1.264c.08.185-.536.28-.718.202l-.802-.344,1.437,1.54-1.925-.062c.5.305,1.287.518,1.982.638l-.645,1.686c-.281.354-1.223,1.246-.97,1.376l1.296.404c.194.061.274.834.075.867-.423.069-1.313-.064-1.547-.182.136.741.226,1.585.214,2.214l-1.228-1.054.72,1.967-2.675-1.117c.449.649.863,1.044,1.627,1.468-.048.065-.6.818-.568.774-.779.002-.976.002-.856.002l1.362,1.071c.27.213.123.909-.176,1.293l-2.875-1.079-.03.808c-.003.074-.132-.036-.209-.059l-.715-.215,1.703,2.885c-.831-.436-1.043-.638-1.747-1.15l.424,1.441-.998-.166c-.136-.023-.157.345-.108.471.033.084.122.321.101.265l2.352-.52-1.803,1.732,2.774-.651-.524,1.695c.49-.493,1.525-.791,1.874-.35-1.245.976-.258.481.053.429.567-.095-.834,1.413-.599,2.434.853-.968,1.195-1.405,2.189-1.718l-.406,2.526c-.041.255-1.279-.225-1.292.029-.013.257-.004.805.208.766l2.624-.48,1.224.749c.248.164-.28,1.107-.583,1.284-.303.177-.871-.38-1.27-.625-.125.526-.204.998-.3,1.23-.077.186-.458.327-.807.56l.626-.059.688-.468c.094-.064.221.19.205.302l-.071.496,2.567.7c-.048.173.261-.521.109-.538l-.93-.104c-.376-.042-.599-.927-.409-1.264.243-.431.962-.671,1.43-.561l1.773.416c.403.094.868,1.211.557,1.56l-2.075-.612,2.388,1.965c-.593.031-1.584.021-2.03-.191l-.614-.292c-.126-.06-.41.357-.284.418l.707.342c.243.117.347.774.292,1.053-.229,1.172-3.043-.249-3.325-.59l.48,1.618,1.689.274c-.133.651-.202,1.232-.239,1.905-.154-.01-.584-.069-.569-.222.015-.153.103-.765-.032-.839l-2.166-1.182-.374,1.882-.44,1.86c.343-.429.466-1.04.712-1.052l.968-.049-.805-.956c-.141-.168.644-.228.964-.349.198-.075.091.248.039.771.411.269,1.106.622,1.233.984s.077,1.194.033,1.756l2.182-.791-2.45,2.306.054-1.079c.005-.106-.288-.25-.34-.202-.745,1.296-1.968.594-2.005,1.611-.014.382.457,1.307.661.845l-.187-.996c-.037-.198.542-.549.701-.426l.49.378c.156.12.582.729.716.583l.641-.696c.104-.113.492-.389.532-.255.333,1.108-.258.971.176,1.182l.595.289c.117.056.033.569.056.701.023.132.287.184.553.249l.339-1.912c.367.142.743.306.718.514l-.145,1.188c.37-.334.897-1.139.797-1.671-.14-.739-.373-1.225-1.058-1.473l2.375-1.89.836,1.342.701-.713,1.423,1.447c-.624,0-1.35-.146-1.515.121l-.668,1.081-.75-.686c-.113-.104-.405.324-.513.443-.579.634,1.579.341,1.534,1.2-.05.962-1.076,2.132-1.859,2.93l-.908-.805-.115,1.145c-.022.218-.57.346-.841.482.446.746,1.736.592,2.267.256.192-.121.88.408,1.016.232l.675-.87c.178-.229,1.105-.724,1.256-.48l.411.664-1.782.896c.459.13,1.144.133,1.536.074-.577,1.071,1.577,2.362.832,2.888l-1.582,1.117c.171.029,1.018-.009,1.454-.09.26-.048,1.418-1.235-.013-3.595-.259-.428,1.226-.59,1.795-.245l-.162,1.407c.177-.061.921-.654,1.188-.907l.309,1.159c.404-.639.573-1.349.772-1.209l1.018.717-.704-1.382c.109-.028.604-.067.723.07l.509.587c.62-.619.607-1.481.327-2.536l.729.903c.204.253,1.01.184,1.146-.081l.535-1.043c.153-.299.302-1.008.223-1.33-.236-.964-2.98-.406-4.222-1.732l-.008-.017c.992-.622,3.764,1.112,4.509-.212.223-.396.385-1.186.528-1.798.029-.366.049-.622.019-.242-.808,1.052-1.557,1.849-2.711,1.758l-4.189-.332,3.999-3.479c.615.502.929.757.551.449.002-.59.06-1.23.31-1.446,1.813-1.564,3.595-3.144,5.241-4.791l7.973-7.979c1.724-1.725,3.058-3.527,4.561-5.354.013.919-.156,1.702-.429,2.445-2.37,6.458-.703,7.02-3.469,12.902,2.809-4.268,4.705-7.66,5.292-12.859l3.063,3.701c.423.51.686,1.698.867,2.542l.586.173c-.171-1.656-.221-3.534-1.079-4.944l-2.838-4.662,21.573,8.177,36.507,13.989,9.935,4.179c5.273,2.218,7.511,3.973,12.537,5.76.097.314.175.57.078.254-2.871.471-4.561-1.757-6.969-2.458-9.457-2.753-25.713-2.545-35.867-1.232-1.58-.754-3.427-1.584-4.834-2.678-2.182-1.698-4.295-3.818-7.128-3.107.934.265,1.779.444,2.179.886l-3.908.158c-2.628.107-3.663,2.061-4.444,4.175l-1.004,2.717c.492.252.75.339.843.524.093.185.144.757.262.927l1.59,2.287c1.444,2.076,4.174,2.114,6.613,1.813-.839.459-1.977.718-3.2.992,2.129.628,4.071-.259,5.934-1.332,1.56-.898,2.487-2.132,3.745-3.312l2.952-2.769c8.345-1.418,24.321-1.541,32.471.28l7.184,1.605-.299.294c-3.127.151-5.976.487-9.104.977-4.952-2.538-4.776-2.287-10.061-.55-.702.231-1.284.95-1.779,1.277-2.365,1.562-4.694,2.659-5.555,5.707l.483-.01c.837-.72,1.613-1.31,2.355-1.237l-3.323,2.868c-.128.111-.369.924-.208.914l1.149-.069-1.3,2.17-1.167,4.153c-.17.603.562,5.587.929,5.065l.348-.495c1.032-1.467,2.219-2.892,3.305-4.142l.016,1.087,2.012-2.66c-.095-.049.162.083.602.31l1.957-2.946c.903-1.359,2.425-3.125,2.58-4.729.16-1.661.307-3.056,2.28-3.826l2.961-1.155-2.365,3.081c-1.717.131-1.789,1.749-2.468,2.808-1.244,1.942-2.202,3.518-2.153,6.029.106,5.407,1.153-.645.834,6.408-.005.124.451.373.5.26.395-.904,2.573-3.17,3.519-4.144,1.288-1.326,1.462-3.292,1.732-5.341l1.205,3.385c1.417-2.81,2.493-5.493,3.044-8.35.441-2.288-1.594-3.77-.919-4.771.164-.243.811-.644,1.137-.677,5.973-.599,12.081-.585,17.724,1.758,3.899,1.619,7.246,4.068,10.874,6.23,4.815,2.87,9.312,5.756,13.839,9.07l9.083,6.649v-6.214ZM245.904,54.764c-.996.66-2.16.993-3.725.464.227-.676.869-.996,1.608-1.257.476-.168,1.086.193,2.118.793h-.001ZM279.824,58.27l5.533-5.398c1.786-1.743,3.374-3.758,4.735-5.79l2.354-3.513.254,1.749,2.466,2.149-3.949-.557c.454.4,1.248.839,1.724.91h0s2.879.428,2.879.428c-5.557,5.116-9.138,7.104-15.996,10.022ZM284.325,51.861l7.339-8.468c-.093.515-.437,1.108-.803,1.622l-1.414,1.983h.001c-2.36,3.309-4.971,6.24-8.104,8.389l2.981-3.526ZM302.129,42.111l-1.275.427c-.243.081,0,.451-.342,1.211l-.422-1.532-.951,2.305c-.039.258-1.118-.127-1.113-.481.012-.875,1.643-2.638,2.251-3.057.469-.323,1.706.827,1.852,1.127ZM297.325,36.074c-.183-.252-.643-.693-1.059-1.03l1.449-.718c-.266.63-.347,1.32-.021,1.563l1.214.903-.116-1.588c-.007-.335.91-.486,1.232-.32.375.193.746,1.128.785,1.568l.058.654c.013.152-.427.303-.555.232h-.002s-.649-.357-.649-.357c-.083-.046-.404.011-.375.103l.307.978c-.537.247-1.383-.466-1.675-1.166-.328.014-.432-.013-.437.105l-.036.859c-.796.072-2.293-.383-2.503-1.395.366-.496,1.45-.412,2.383-.391ZM294.438,37.502c.161.052.591.207.769.254l4.792,1.253-2.481,2.441,1.282.137-2.224.956-.175.509c-.039.112-.296.247-.356.143l-.388-.666c-.211-.363-1.32.037-1.653.332l1.304,2.181c.268.449.285,1.629.407,2.278-1.831-1.683-2.828-1.94-2.277-4.77.972.029,3.292-1.879,3.645-2.851l-2.1.916.928-.99c.174-.186-.789-.832-1.01-.679-.663.458-1.421,1.618-1.923,2.399l1.056-3.223c.055-.165.243-.672.404-.62ZM292.947,36.19l.892-.881h0c-.169,1.03-1.033,1.846-2.089,2.158l-.649-2.387,1.845,1.11ZM289.259,34.985c.182-.297,1.362.016,1.369.353l.04,1.807-.617-.9c-.119-.173-.59-.068-1.185-.072.03-.249.211-.892.393-1.189ZM287.937,38.113c-.115-.002-.232-.07-.174-.157l.369-.549c.063-.093.379-.309.479-.364.1-.055.429.107.388.213l-.229.592c-.034.003.58.239.616.101l.248-.95.822,1.362c.202.334,1.178.205,1.759.105l-1.618,1.583h-.002c-.257-.224-.476-.714-.765-1.459l-2.124.479c-.025-.055-.047-.457.085-.528l.769-.416-.623-.012ZM287.558,44.205c.851-1.024,1.601-2.425,3.319-1.409-1.574,2.185-3.032,4.458-4.849,6.366l-4.101,4.306c.29-2.218,3.082-4.635,2.726-6.738-1.615,3.524-3.264,7.077-6.316,10.004l4.443-9.129c.562-1.155,1.829-1.697,2.872-1.108l1.906-2.292ZM276.789,42.354l.557-2.066c.04,1.277.517,2.361,1.607,3.018.001.112-.525.79-.341.845l1.16.346-.249,2.134c-.052.447-1.563.425-1.957.231-.254-1.158.214-2.349,1.189-3.345l-1.966-1.163ZM281.303,40.149c.52-.093,1.806,1.152,1.978,1.83.082.322-.558,1.2-.866,1.141l-1.283-.247,1.295-.75h-.002c-.663-.799-1.91-1.095-2.755-.803l.339,1.245-1.217-1.155.241.77c.074.235.197.634.126.405l-1.134-.623c-.183-.101-.026-.847.172-.919l1.26-.455-1.461-.837c-.147-.084-.503-.332-.671-.455-.133-.096.03-.527.174-.606.968-.53,1.565.99,2.185.666l1.437-.752-1.207,2.165c.466.003.82-.198,1.389-.62ZM279.439,34.459c.315.241.237.926.383,1.833l.647-1.014c.542.186,1.147.399,1.508.398.361-.001.751-.864.943-1.314l2.601-.322.328,2.314-1.873-1.448-.933,1.991,1.437-.699-.565,1.299c.2,1.241.354,2.147.378,3.146l-.79-2.025c-.166-.425-1.237-.182-2.118-.481l1.479-.477c.021-.023.199-.492.077-.51l-.561-.082.551-.799c.135-.196-1.058-.501-1.215-.319l-2.112,2.456c-.231-.899-.342-1.475-.64-2.02-.251-.46-1.374-.351-1.888-.195-2.558.417.834-.436.859-2.034.119-.189,1.168.046,1.504.302ZM274.523,32.7l-.117,2.822.145,2.995h-.001c-.846.577-1.587-2.977-.543-3.124l-1.611-1.851c.8-.416,1.261-.603,2.127-.842ZM268.525,41.473l2.431-.008,1.824-1.061h0c-.014.264-.109.549-.006.594l.547.238c-1.337.938-3.32,1.638-4.797.237ZM271.989,48.63c.005.09-.275.011-.331-.063l-.282-.374-.521-.684c-.128-.168-.39.138-.785.425l-1.058-1.767,1.28,1.047.271-1.205h0c.858.31,1.353,1.138,1.397,2.038l.029.583ZM270.348,34.591c.294-.331,1.679-.437,2.182-.023.637.524.513,1.976.014,2.288-.235-.446-.489-.86-.747-1.18h0s-.356,2.05-.356,2.05l-.635-.043c-.9-.061.74-1.635-.457-3.092ZM268.945,32.979c.764-.337,2.425-.046,3.356.443h0c-.771.891-1.564.267-2.209.093l-.509.876c-.13.223-.747.082-.901-.125-.154-.207.028-1.183.264-1.287ZM269.845,35.579c.211.763-2.104,1.106-2.239.452-.199-.965,1.99-1.352,2.239-.452ZM265.614,40.192l-.363-1.361c-.054-.202.161-.842.347-.769l1.146.45-.497-1.983,1.196.936.999.2c.237.048.318.717.209.929-.128.248-.242.5-.566,1.241-.25-.291-1.003-.91-1.51-1.2-.654.968.096,1.447.588,2.387l-1.361-.787-.432.476c-.15.165-.553-.163-.947-.385-.672,1.302,1.491.535.424,1.749-.116.132-.514-.277-.612-.428l-1.551-2.404,2.93.949ZM261.209,39.325c1.292.694,1.548,1.73,1.607,3.29l-1.325-.803h-.001c.017-.389-.08,1.218-.344.597-.078-.184-.231-.592-.214-.736l.277-2.348ZM261.221,44.717c.678.453.833.295.361-.293l-.208-.781c-.033-.127.535.02.63.156l1.318,1.886-.852-.284c-.274-.092-.654.355-1.085.726l-1.325-1.4c.07-.021.733-.023,1.16-.01ZM253.244,43.639c.416-.363,1.49.857,1.342,1.425h0c-.106.407-1.227.583-1.514.269-.292-.319-.268-1.309.172-1.694ZM259.623,49.025c-.451-.027-.91-1.01-1.378-1.791h0c-.119.265-.254.805-.519.77-.265-.035-.861-.557-.874-.817l-.046-.889c-.011-.209-.322-.31-.727-.483.438,1.19.168,2.437-.999,3.156l-1.32-.977c.069-.405.144-.903.008-1.072-.187-.233-.624-.365-.833.365-.322-.054-1.33-.76-1.669-1.187-.148-.186.495-1.03.718-.924.277.132.83.839,1.113.836l2.573-.026-.288-1.364c2.95.703,2.452,2.533,5.99,3.837-.526.254-1.298.593-1.749.566ZM269.714,60.104c-4.112.883-10.441,2.047-14.513,1.43,1.074-1.441,1.646-2.689,1.278-4.451,4.457,1.665,8.495,2.175,13.235,3.02h0ZM270.556,58.296l-8.95-3.665c-.323-.133-1.022-.597-.978-.909s.338-.927.549-1.173l7.498,4.269,1.882,1.478h0ZM261.629,51.952c1.01-.89,2.016-.596,2.892.075,2.269,1.737,4.513,3.106,6.517,5.244-2.926-1.414-6.341-3.412-9.409-5.319ZM270.37,55.307h0l-4.868-3.229c-.904-.698-1.567-1.3-1.598-2.666l1.667.913,4.8,4.982ZM266.065,50.17c1.7-1.45,4.094,3.247,4.234,4.155l-4.234-4.155ZM268.845,49.441c-.298-1.05-.524-2.07-1.315-2.765l-.16-1.406c-.277.181-.759.744-.742,1.019.065,1.037,1.395,1.03.824,2.308-1.099-.937-1.919-2.058-2.546-3.147-.273-.081-.979-.366-1.254-.587l-1.65-1.738,1.216-.206c.193-.032.153-.606.104-.797l-.351-1.357,1.605,2.473-1.246.286c2.306,1.014,2.151,2.099,3.125,1.285.231-.192-.114-.8-.308-1.131l-.378-.645c-.268-.456,2.187-.735,2.74-.053.346.427.54,1.576.506,2.065-.929-.34-.69-1.883-2.033-1.22.629.329.981.496,1.268.707.426.314.384,1.597.205,2.067l4.97,9.343c-2.048-1.794-3.876-4.021-4.58-6.501ZM273.358,47.31c-.114.167-.925-.019-.956-.219-.086-.55-.11-4.538,1.922-3.743.414.162.802,1.195.463,1.284l-2.038.533.798,1.394c.1.175-.075.584-.189.751ZM275.153,51.593l-1.164-3.208c-.093-.257.462-.634,1.107-.864.128,1.677.18,2.604.057,4.072ZM275.46,33.886l-.138-.676c-.108-.529,3.235-1.112,3.804.338-2.222-.751-3.596.683-3.666.338ZM276.324,53.732c-.71-2.623-.413-5.048-.229-7.616l.166-2.3-.448-.408c-.107-.097-.04-.573.098-.529.138.044.792.209.861.336.379.702.06,2.225-.01,3.188-.181,2.494.414,4.857-.438,7.329ZM277.469,48.792c.014-.324.037-1.094.299-1.183.262-.089.806-.1,1.115-.073h0c1.285.111-1.288,7.75-1.753,8.882l.338-7.626ZM293.712,118.126l-.036.753c-.008.158-.623.044-.757-.073l-2.335-2.041c1.668-1.369,2.307,2.273,3.439.059.694.861,1.306,1.8,1.65,3.492-.79-.631-1.272-1.263-1.961-2.19ZM224.126,39.625c.094-.134,1.145.545,1.529,1.435.136.315-.616.816-1.227,1.068l-.021-1.524-1.005.057.724-1.036ZM221.821,30.875l4.78.339h0c-1.977,1.119-3.593,1.776-5.788,2.665-.183-1.219.336-2.384,1.008-3.004ZM214.537,29.894l3.435-1.442c.013-.032-.319-.524-.435-.472l-2.98,1.337,3.059-2.944-1.038.234c.626-.662,1.366-1.58,1.352-2.099-.732-.577-1.16-1.12-.976-1.621l1.234.299c.6.145-.089,2.114.475,3.509l1.248-.559-.004.97c0,.191.448.216.882.426-.295.337-5.564,3.804-6.252,2.363h0ZM153.408,101.956c-.824.799-2.767.531-3.525.083-.181-.108-.176-.991-.125-1.196.064-.256.806.014,1.068.16l2.582.952h0ZM217.215,50.598c-2.321,5.843-6.811,13.575-11.006,18.681l3.7-10.817h0c1.229-3.594,1.191-5.027,3.867-6.544.006.571-.087,1.202.185,1.188l1.255-.066c.273-.014.095-1.054.113-1.338.015-.243,1.129-.136,1.032-.357l-.523-1.2,1.08-1.124-2.251-1.883,4.241-.802-1.693,4.262ZM201.624,47.365c-.158-.195-.37-.803-.245-1.004.156-.25.988-.197,1.196.021.201.21.359.717.554.711l.963-.031c.186-.006.795.251.698.416-.097.165-.379.5-.553.567l-.574.22c-.111.043-.06.476.05.435l.863-.321-.178,1.311,3.223-2.431c.138-.105.377-.665.251-.769l-.547-.451c-.427-.352.244.427-1.16,1.241-.187.109-.821-.272-.761-.481l.293-1.027-2.512.811.026-1.468.788.628c.185.148.815-.316.832-.418-.277-.453-.6-1.085-.563-1.448.691.104,1.097.796,1.415,1.508-.098.054.344-.191.495-.274.167-.093-.053-.404-.201-.784-.134-.444.651-1.388,1.167-1.433.874.648,2.093,1.667,2.63,2.232l-.746,1.646c-.166.366.749.732,1.422.726l.016,2.364c-.636-.422-.886-1.271-.954-1.943-.839.065-.498,1.274.023,1.972l-1.515,1.068,1.437.059c-.246.635-.887,1.276-1.777,1.764l-1.401-3.455c-.421.523-.786,1.005-1.138,1.182-.458.231-1.395-.534-1.752-.973h0l-1.766-2.171ZM208.323,54.338l1.122-2.635c-.127,1.927-.428,3.463-.956,5.42-1.023-.89-.25-1.886-.166-2.785ZM211.709,45.66c3.694.229,4.132-.837,6.501-.24-.935.601-1.657.69-2.803.82h0c-1.672.188-2.107,1.628-3.042,1.273-.027.395-.27,1.31-.538,1.724l-.529-1.474c-.104-.291.619-.746.846-.84l-.434-1.263ZM215.46,42.497l2.227,1.985-1.539.261c-1.238.21-2.339.333-3.606.224.945-.973,2.217-1.214,3.229-1.082l-.311-1.388ZM218.1,39.74c-.033.525-.451.925-1.232,1.672h.001s2.036,3.202,2.036,3.202c-1.289-.785-2.132-1.815-2.981-2.929l2.176-1.945ZM213.711,39.273l1.147,1.341,1.149-.682c.248.108-.12.937-.404,1.206-.606.573-1.198.364-1.891-.161.157.949-.244,2.11-1.371,2.747l1.37-4.451ZM211.848,24.146l.895,3.121c-.655-.591-1.596-1.688-1.98-2.282-.146-.226.817-.795,1.085-.839ZM212.173,29.863c-1.121-.481-2.309-1.063-3.586-1.787,1.555-.697,2.288.411,3.586,1.787ZM204.048,29.703c-.149-.109.451-.547.634-.507l2.232.49-1.192,1.978h0s-1.901-.332-1.901-.332l.982-1.076-.755-.553ZM202.351,31.798l3.498.39c-.433.724-1.433,1.477-2.452,1.776h0l-1.971.578.925-2.744ZM206.494,33.574c-.868,2.648-1.934.933-4.634,2.806-.933-2.627,2.111-.785,4.634-2.806ZM202.048,38.424c.146.086.496.752.57.591.079-.17.26-.532.286-.693l.137-.847c.038-.236.712-.036,1.012.117.584.445.903.395.465-.32.048-.315.163-.94.345-.916l1.077.141c.448-1.883.956-.798,1.288-2.851.072-.45-.556-1.083-.836-1.606-.19-.356.824-1.159,1.237-1.223.413-.064,1.044.161,1.655.529l-1.986,1.079c3.959,1.275,2.506-1.445,5.561-1.034l.055,5.245-2.264.648-.29,1.684-1.16-2.468-.989,1.961-.568-.847c.125,1.238-.346,2.728-1.644,2.64l.593-.551c.136-.126.184-.676.01-.714-.322-.07-1.172-.171-1.378.009-.247.215.168.857.466,1.635l-2.492-.28-.497-1.022c-.115-.235-1.055-.172-1.025.07.483,1.568,1.326.782,1.962,2.191.201.445-.058,1.454-.432,1.407l-2.58-.302.002-.002c-.301-.035-.994-.004-1.004.188l-.048.913c-.011.21-.109.743-.151.95-.042.204-.726-.151-.931-.284-.222-.143.053-.46.43-.997l-1.743-.582.634.914c.179.259-.719,1.055-1.014.966l-2.562-.771c-.15-.045-.539-.407-.64-.535-.101-.128-.087-.723.077-.727l1.063-.026,1.427-2.403c.16-.27.537-1.02.869-1.187l3.014-1.517c-.373,3.692-.58.469.29,4.436.038.175.556.253.66.108l.394-.553c-.786-.547-1.233-1.143-1.087-2.033.112-.687,1.171-1.464,1.742-1.131ZM196.891,48.617l-.703,1.777,1.342-.153-.441,2.751-1.006-.608-.671,1.106c.637.665.734,1.682.672,2.518l1.707,3.773-1.539,1.3-1.844-1.679.758,2.342-3.438-2.692.002-.006.661-2.086-1.116,1.004c-.247.222-.86-.248-1.285-.412l-.408,1.491c-1.108-.815-.286-1.379.27-2.045-.138-.613-.452-1.654-.519-2.231l-.255-2.194c.393.317.794,1.095,1.006,1.834l1.269.971-1.334-2.806c.01-.18.759-.656,1.109-.582.409.087,1.393.919,1.377,1.362l-.129,3.573c.415-.142,1.069-.362.91-.309-.277-.524-.509-.878-.376-1.065.133-.187.528-.406.754-.446.282-.05.223.987.179,1.252l2.038.398-2.552-2.769c.468.507-1.576-2.492-.846-2.83l1.081-.501-1.141-1.616c.879-.273,2.535,1.811,2.985.553-.486-.871-.898-1.788-.787-2.411.783.919.892,1.655,1.758,1.686-.384-.767-.727-1.258-.783-1.698-.061-.479.964-1.513,1.174-1.486l.172,2.356c.597-1.334.605-1.791,1.307-2.55l-.224,2.295c.522-.138,1.102-.296,1.458-.341.402-.05.682,1.151.541,1.627l-1.105-.923-.064,1.82c-.665.072-1.59-.62-1.964-1.35ZM198.566,54.331c-.018.311-.931.834-1.099.576-.269-.414-.667-1.469-.361-1.77.232-.23,1.232-.303,1.306,0,.099.405.172.883.154,1.194ZM198.295,61.279c.474,1.885.735,2.945.97,4.665-1.121-1.381-1.697-2.329-2.484-3.745l1.514-.92ZM192.575,62.173c2.29,2.382,4.347,4.782,5.963,7.954h0s-6.626-6.21-6.626-6.21l.663-1.744ZM183.376,66.002c.111-.566.303-1.197.503-1.733,2.241,1.028,4.019,1.94,5.879,3.261,1.679,1.193,3.559,1.843,4.991,3.651-3.995-1.516-7.506-3.28-11.373-5.179ZM194.616,73.031c-1.479-.042-2.893-.349-4.353-.68l-7.671-1.778c1.082-1.667,2.653-1.321,4.101-.728,2.614,1.071,5.288,1.411,7.922,3.185h.001ZM183.561,63.51h0c.087-.855,1.04-1.165,1.896-1.479-.135-.191-1.056-.576-1.297-.303l-1.223,1.383-.655-1.195c-.236,1.132-.107,1.682-1.093,1.904l-.159-1.866c-.037-.428-.059-.81-.062-1.068-.003-.258.914-.472,1.111-.333,2.197,1.553,3.102-.505,3.787.902.253.52-.172,1.298-.576,1.688l-.703.679c-.186.179-1.057-.019-1.027-.312ZM179.08,76.513c.221.198-.413,1.054-.607.84l-.753-.832c-.102-.113-.152.514-.182.703-.024.15-.015.111.618.395-.031.084-.111.299-.218.588l1.785-1.135c.123-.079.745-.183.714-.042l-.161.729-.266,1.296c2.281-.037,4.419.127,6.507-.412s3.97-1.059,6.012-.949c-3.562,1.447-6.977,1.609-9.865,2.618l.262.862c.038.127-.599.41-.76.377h0s-2.995-.618-2.995-.618c-.109-.022-.571.323-.657.393s.075.465.183.443l.7-.139,2.851.265c-1.919,1.922-5.185.3-6.285-1.2,2.069-.246,3.157.177,4.439-1.251-.696-.301-1.201-.292-2.056-.078-.501.603-.464.368-.212-.248-.914.549-2.008.842-3.008.63.599-.765,1.242-1.225.63-1.87l-1.046,1.313c-6.554-3.986-2.988-7.062-1.575-1.407l.612-.729c.14-.166.384.501.623.87.122-.15.371-.783.327-1.068-.065-.419-.65-.632-1.197-.663-.537-.031-1.103-1.534-.767-1.795.612.143,1.339.526,1.523.276l.642-.874-3.039.174c-.682-1.049-.297-2.09.67-2.789-.508-.227-1.206-.352-1.088-.561l.577-1.026c.118-.209.703.382.992.582,1.582.323,1.523-.608,2.825.44.167.135-.425.473-.77.673l.549.254c.198.092.244.725.237.947l-.033,1.032c-.009.268.808-.093,1.133-.181l.925-.249c.186-.05.012-.638-.016-1.031l1.423.642.114-1.303c.019-.216.673-.092.866.002.241.117.026.818-.11,1.077l-.538,1.025c-.132.252-.682.146-1.048.122l-.338,2.12.851.762ZM187.552,75.675c1.339-.042,2.297-.18,3.563.122-2.304,1.188-6.899,2.248-9.951,2.796-.181-.727-.214-1.412.015-1.771s1.194-.985,1.629-.999l4.745-.148h0ZM188.99,80.637c-1.147.506-2.431,1.046-3.427,1.7l-2.841,1.865c-.217.142-.765.3-.964.34-.263.052-.615-.886-.406-1.026l2.053-1.381c.096-2.284,8.115-2.993,9.349-3.16l-3.764,1.661h0ZM180.747,84.475l-1.537,1.515-1.245-1.529c.074-.239.866-.822,1.199-.792.4.036,1.047.407,1.583.806ZM177.444,83.694c-.162.066-.639-.115-.748-.282l-1.183-1.818c.812.312,1.899.891,2.314,1.306.123.124-.221.728-.383.794ZM168.593,77.847c-1.61,1.142-3.602-1.955-4.524-1.654-.134.043-.441.234-.343.335.098.101.409.372.531.408v-.002s.733.216.733.216c.199.059-.317.686-.55.889s.028.874.348,1.172c.236.22.819.216.95.052l-.808-1.049c-.141-.183.469-.564.699-.537.287.034.474.583.568,1.036.224.24.756.473.66.744-.544,1.531-2.33-.149-2.039,1.503,3.6-1.126,4.299-.573,6.767-1.152.162-.039.089.485.061.737-.019.171-.177.096-.639.065-6.297-.21-4.086,3.006-8.487,2.072l.532-2.128-.547-.35c-.148-.095-.048-.533-.074-.763l-.28-2.449,1.372,1.06c-.491-1.13-.444-1.879-.033-2.977l-.547-3.343c1.055.165,1.546.682,1.565,1.37.017.617-.148,1.252-.323,2.045.501-.197.877-.799,1.235-1.647l3.238,1.412.037-1.451c1.064.684.943,1.668.78,2.575-.389-.552-.424-.814-.894-.743.299.459.923,1.187,1.332,1.537l.613-.415c-.214.145,2.487,2.016,2.585,2.626l-3.882-2.035c-.488-.256-1.295-1.161-1.751-1.347l-.97.548,2.085,1.64ZM160.663,74.006l1.278,2.099c-1,2.006.945,3.049-.706,3.895-.371.101-.667-1.039-.581-1.494.586-3.08-2.794-3.185.009-4.5ZM159.918,79.919l-1.728-2.995c-.191-.331-.116-1.262.214-1.542,1.37.813,2.563,2.446,1.514,4.537ZM161.257,84.264c.934.039,1.303.543,1.272,1.122-.038.71-1.154,1.686-1.505,1.124h0c-.022-.797.099-1.659.234-2.246ZM175.123,59.692l-2.006-1.092c-.183-.808-.09-2.028.4-2.525.744-.755,1.823-.932,2.578-.837.152-.619,1.049-1.58,1.684-1.424.512.126,1.45.65,1.971,1.033l.204,2.966c.758-.607.421-1.199.262-2.418.925.322,2.278,1.068,2.865,2.041-.32.525-1.047,1.371-1.33,1.54-.811-.412-1.381-.647-1.829-.624l.739.725c.173.171-.07.746-.147.978-.189.57-2.31-.881-1.716-4.149h0s-1.656-.321-1.656-.321l1.049,2.365-1.921.239,1.761.647c.137.051.407.453.497.569.134.171-.553.686-.79.667-.993-.081-2.214-1.039-2.855-2.106l.24,1.726ZM174.727,54.566c-.387.313-1.56,1.028-2.233,1.223-.423.123-1.285-1.078-1.206-1.233,1.118-.959,2.122-.944,3.439.01ZM174.041,53.201c-.14-.522,1.168-1.4,1.876-.977h0c.361.215-.048,1.157-.307,1.426-.398.414-1.381.248-1.569-.449ZM176.987,65.025c3.265.86,1.967,1.674,2.269,1.787l.818.305c.099.037.413.35.319.397-.141.07-.812.361-1,.289h0s-3.534-1.353-3.534-1.353c.696-.406,1.491-.25,2.316,0l-1.188-1.425ZM179.813,70.315l1.614-2.29.423.467h-.001c0,.572.052,1.432-.282,1.626-.405.235-1.409.316-1.754.197ZM184.708,58.007c-.475-.385-.114-1.168.197-1.434.149-.128.145-.616.198-.807.053-.191.692-.358.82-.207l.797.938.993-.938.267,1.324.525-1.276h.002c.117-.286.857.43.869.743.012.313-.284,1.1-.572,1.211-.708.274-1.94.333-2.613.469-.564.114-1.168.233-1.483-.023ZM186.657,48.642c1.654.861,2.268,2.636,1.291,3.882-1.257-.808-1.775-2.631-1.291-3.882ZM190.006,51.72c-.987.095-1.13-1.892-.445-2.137.301-.108.926.589,1.062.907.145.342-.217,1.182-.617,1.23ZM200.534,34.884l-.93,2.143-1.941-1.142,2.87-1.001ZM196.654,35.841l2.074,1.742h0s-4.999,2.696-4.999,2.696c.261-1.976,1.3-3.326,2.924-4.438ZM195.94,35.413l-2.605,1.994-.499-2.012,3.104.018ZM193.388,45.032l-1.344-1.548-.025.617c-.005.121-.101.433-.197.355-.17-.138-.61-.526-.515-.705l.861-1.616c-1.488.089-.969,2.424-2.198,2.757l.147-1.419c-.321.139-.917.45-.832.666l.439,1.115c.162.413-.276,1.39-.616,1.65l-1.387,1.063-2.555-.487.791,1.069c.19.257-.15,1.006-.37,1.455l1.586,3.879c-.655-.016-1.386-.318-1.748-.682-.309-.311-.069-1.356-.204-1.753l-1.238-2.352c-.174.495.187,1.26.718,2.464l-1.863-1.254-.002.004,1.21,1.942-1.741-.308,1.091,1.277c.227.265-.23.878-.414,1.499l-.929-.808c-.015,1.797,1.348.855,1.958,2.342.064.158-.47.554-.589.432l-.537-.55-1.629-.875-2.601-2.636c.909-2.436-3.327-.259-2.49-1.669,1.474-2.484,3.196,1.498,5.355,2.606,0-1.725-.084-2.747.39-4.177.085-.256.809.034,1.284.147-.037-.478-.327-1.032-.015-1.184.49-.239,1.347-.512,1.716-.605l.28-1.541c.084-.464,1.646-.649,1.719-.227.389.673.609,1.042.946,1.493l-.903-2.314,1.21-.869c-.122-.587-.279-1.083-.061-1.307.321-.331,1.243-.666,1.497-.611.685.829.636.594.402.073l-.532-.989c-.117-.218.627-.411.724-.448l-1.108-1.755,2.219-.39.622,1.884-1.707.239c2.51.574,3.148,2.34,3.185,4.051ZM180.912,43.223h0c.302,1.039-.133,2.23-1.297,2.452l.026-1.575c.008-.471.872-1.104,1.272-.877ZM180.685,45.866c.102-.109.462-.404.54-.476h0c.495-.457.714,2.25-2.751,2.841l2.211-2.365ZM180.788,51.062c-.936-.287-1.562-1.021-2.057-2.041.54-.31,1.535-.539,2.129-.077h0c.349.271.189,1.493-.071,2.118ZM185.384,45.019h0c.089,1.257-1.613.997-2.245.335l.822-.808c.316-.31,1.386-.052,1.423.473ZM184.177,41.053l.51-.415c.857-.698,1.77-1.48,2.906-1.398.654.047,1.402.876,1.391,1.42-.01.514-.993,1.37-1.4,1.26h0c-.077-.457-.158-1.625-.508-1.783-.776-.302-2.128.893-2.009,1.688l-.763-.176c-.139-.032-.238-.505-.126-.596ZM191.956,30.839c-.011,1.263-.149,2.449-.671,3.539-.413-.19-1.07-4.169.671-3.539ZM190.351,37.78l-1.059.641c-.358.216-1.348.344-1.709.132-.361-.212-.897-1.02-.92-1.45l2.142-.386c.522-.095.97-.189,1.172-.027.202.162.595.956.374,1.09ZM189.108,29.729c.226-.15.876-.057.911.21l.253,1.923h0s.099.761.099.761c.02.16-.49-.07-.551-.219l-.704-1.711c-.09-.22-.189-.844-.008-.964ZM188.11,30.053l1.651,2.319-.735.523-1.651-2.319.735-.523ZM186.456,32.425c.277.123.472.662.635,1.107h.001l2.267,1.533c-1.579-.526-2.84-1.09-4.229-1.839.467-.446,1.049-.924,1.326-.801ZM187.543,35.394l-3.748-.858c-1.064-.244-.643-2.287,3.748.858ZM185.797,37.381c.237.059.603.65.671.883.321,1.098-2.351,1.136-3.356,1.026-.272-1.633,1.827-2.122,2.685-1.909ZM179.678,41.351l.795-2.954c.638.063,1.681.22,2.02.555.887.875,1.159,2.481.641,3.753-1.036.004-2.291-.424-3.404-.985l.098,1.264-1.222,2.754c-.691-2.838,1.109-4.525,1.072-4.387ZM178.027,42.242l-.219,3.905c-.577-1.103-.903-2.148-1.098-3.286l1.317-.619ZM174.467,43.018l1.091.998c-.153.176-.109.126.518-.596l1.18,3.302-3.258-3.369c-.208.099.341-.452.469-.335ZM172.499,45.198c.276.163,1.552-1.451,1.588-.726l.035.721c.244-.06,1.232.043,1.343.374.111.331.056.878-.037,1.446l.612.036c.181.011.417.49.322.644-.565.913-2.099-1.377-2.265-.582-.032.152.178.73.05.774l-.818.28,1.463,1.001c-.25.119-1.021.208-1.504.133-.431-.068-.534-.988-.694-1.881-.047,0,.518-.003.691-.003l.308-2.044-1.136.972-1.307-1.942,1.349.797ZM170.21,51.873l2.167-.965c-.179-.268-.518-1.157-.322-1.452.757-.007,1.718.714,2.019,1.128h-.001c-1.402.403-2.144,2.236-3.863,1.289ZM170.107,58.305l.345-3.393c.637.052,1.101.791,1.118,1.419.018.615-.394,1.006-1.463,1.975h0ZM170.531,62.485c.724.103,1.54.521,2.47.866-1.003-1.043-.833-2.924-.051-3.708.269-.27,1.174-.199,1.409.039.273.277.588,1.017.788,1.393.174.326.93.731.967,1.095.043.418-.426,1.106-1.033,1.204l.332-1.307c-.669.414-.978.559-1.806.697l-.228.962c-.323.125-1.215.367-1.237.696l-.103,1.564-1.609-.699-.099.711c-.092.663,1.695.256,1.211,1.233l.774-.124c.194-.031.059.702-.047.876l-.781,1.28-1.233-1.677c-.07-.096.047-.379.156-.324l.717.363-1.784-1.854,2.352-2.273-2,.757c-.515-.097-.018-1.891.835-1.77ZM167.397,57.548c.076.149-.913-.333-.809-.523l.371-.678c.037-.529.077-1.169.361-1.421.317-.28,1.166-.551,1.497-.366s.674,1.101.643,1.505l-.191,2.476-.52.141c-.193.052-.518-.558-.503-.778h.002l.137-2.049c-.449.59-.707,1.079-.988,1.693ZM166.755,67.04c.066.309.018,1.257-.057,1.909l.824.494h-.002c.975.586-2.048,2.027-1.077,2.791l.957-.832c.23-.2.92.236.995.531s-.543,1.026-.853,1.046c-1.27.083-3.059-.72-3.876-1.639l-.022-2.491,3.111-1.809ZM162.182,63.799c.699.382,1.08.576,1.661.416l-.943-.921c-.199-.194-.101-1.105.058-1.298.861.238,2.208.693,2.615.176l.741-.941.032,2.329c.012.86-1.043,1.075-2.369,1.1l.654,1.562-1.364.402h0c.25.331.97.524,1.358.412l.67-.193c.123-.035.416.331.352.441-.096.165-.471.627-.656.641l-1.523.117c-.35.027-2.285-3.309-1.286-4.243ZM162.019,71.451c.35.844.658,2.599.716,3.965h.001c-1.735-.024-1.805-1.632-1.674-2.903l.086-.833c.023-.223.773-.465.871-.229ZM161.565,63.705l-.167,1.982c-.044.88-.256,1.956-.589,2.473l-1.652-1.418c-.35-.3.121-1.597.561-1.764.703-.267,1.153-.604,1.847-1.273ZM154.258,65.421l2.112-.701-.342.699,1.903-.928c.408-.199,1.021-1.028.892-1.154l-.988.209c-.169.035-.023-.877.155-.893h0l2.099-.185-1.476,2.058c-1.003.373-1.601.52-1.702,2.15l-1.144-1.127-.962.9c-.218.204-.826-.935-.546-1.028ZM154.801,69.015c-.605-2.258-2.027-2.221-1.565-2.556l.472-.342c.106-.076.225.208.365.481.493.852.939,1.258,2.138,2.129.089.272-1.296.714-1.41.288ZM156.884,67.404l.784-.611c.394-.307,2.529,1.55,2.262,2.007l-3.046-1.396ZM160.396,70.861c.611,1.356-.198,2.737-1.628,3.625h0s-1.002.623-1.002.623c-.152.095-.284-.295-.327-.45l2.957-3.798ZM151.3,79.495c.043-.517.602-1.241,1.157-1.644.445,1.418,1.613,2.544,2.809,2.413.199-.191.516-.99.713-.861l.962.628c.405.265,1.234.144,2.101.002l-.747,3.126c-.024.098-.577.33-.645.405-.102.112-.115-.306-.061-.463.278-.692.31-1.43.096-2.266l-1.719.367,1.075.301c.224.063.275.402.375,1.282l-1.498-.854.542,1.321c-1.689-.3-2.48,1.419-3.578,1.092-.373-.112-.687-1.19-.472-1.528l1.211-1.903.822,1.559.102-1.316c.047-.603-1.838-.856-1.845-.851l-.878.699c-.186-.073-.556-1.095-.522-1.509ZM148.506,90.673c.532-1.765,1.633-3.258,3.553-3.949-1.014,1.426-1.842,2.856-3.553,3.949ZM150.579,94.314h0c-.44-.413-1.075-1.361-1.156-1.85.917-1.161,1.946-2.029,2.851-3.631l-2.632,2.181,3.014-3.833.442,4.084c.135,1.249-1.417,2.512-2.519,3.049ZM153.601,87.852l1.302-1.663-1.537.658c-.449-.481.054-1.303.542-1.443l2.399-.687-.745,1.097.694.06c.161.014.235.615.095.692-.14.077-.327.169-.589.282l-.686.294c-.19.082.326.617.563.619l2.561.024c-.138-.93.006-1.176.447-.666.445.64.565.779.319.216-.481-1.085-.584-2.184-.041-2.998l1.34,2.554v-.002l.416.794c-.342-.654-.986,1.016-2.126,1.16l.684,1.345-2.199-1.732-2.146.536c.821.421.891.444.453.76-.961.693-2.219-1.295-1.746-1.9ZM159.792,91.77c-.151.321-1.083.842-1.33.362-.173-.337-.047-1.163.045-1.84l1.01.242c.286.068.4.969.275,1.236ZM154.98,92.608l.308-.929c-.083-.763.208-1.094.941-1.161.492-.045,1.451.942,1.05,1.091l-1.011.376c-.229.085-.134.655-.192,1.125h0c-.034.279-1.184-.236-1.096-.502ZM159.259,103.365c-.053.317-.867.616-1.516.692l-2.785,1.582c.76-1.815,2.127-2.095,4.301-2.275h0ZM155.81,102.248l-1.664-.195h0l1.839-.624c.652-.222,1.946.388,2.554.59.147.049.355-.603.203-.623l-.776-.104c-.363-.049-.977-.201-1.208-.402-.265-.231-.184-1.692.588-2.217.204-.138.899.376.993.621l.992,2.583c-1.087.678-2.262.637-3.52.371ZM168.849,88.286c-.34-.38-.668.472-.757,1.073l-1.185-1.107,1.281,2.404-1.7-.436.524,1.915-1.937.256,1.373,1.687c-.88-.044-1.853.036-2.833.49-.468.217-.398,1.616-.097,1.899.373-.516.895-1.657,1.261-1.502l1.292.549c.138.059.664.123.732-.005l.529-1c.068.599.059,1.319-.003,1.969l-.192.883c-.053.242-1.199.331-1.158.085l.003-.002.158-.952c.031-.192-.24-.332-.661-.592l.022,2.602,2.274-.516-1.889,2.008,2.073-.63-1.795,1.698,2.533-.752.461-2.431c-.047-.064-.71-.676-.524-.755l.946-.401c.227-.096.109.769.138,1.185l1.837-.82c.731.594.818.808-.083.393-.763.443-1.878,1.378-2.202,1.887.756.89.859,1.165,1.012,2.079.055.327-.318,1.143-.631,1.217l-1.921.454,1.67.881c-.026,2.456-4.722.589-6.206-.058-.572-.011-.788-.032-.182-.252,1.603-.06,3-.108,4.277-.664-1.813-1.269-1.742,1.223-5.906-.486l3.253-2.698c.182-.151.404-.603.393-.797-.015-.251-.738-.224-.921-.061l-2.936,2.627-.413-3.221c-.065-.507.594-1.36.958-2.063l-2.158,1.391c-.382-1.553-.902-2.962-2.044-3.843l1.533,4.549.785-.613c.411,1.311.613,2.586.55,4.002-1.442-.627.209-.701-2.806-4.413l-2.412-2.969,1.67-.492.846-1.588c.889.351,1.73.53,2.276.175l2.74-1.781-1.932-.607c1.057-.758,1.486-.999,1.913-1.788l-1.981.814c1.222-2.893,1.754-.26,2.278-5.078l2.475-.162,1.024-.067c.239-.016.386.727.402.969l.109,1.668c-.892.281-2.164.629-2.972,1.494l4.126-.741c.176.009.704.132.861.163.21.041-.065-.762-.253-.872l-1.703-1.001.698-.345c.217-.107.619.459.865.457l1.127-.008-1.886-2.431c.977-.532,1.163-.691.747.325l1.316-.008c.213.396.638,1.065,1.028,1.629.556.805-.808,2.36-1.627,2.241,1.397,1.701.442,2.439,2.126,3.434-.656-1.343-1.141-1.887-.58-2.95l-.069-1.048c-.02-.309.686-.78,1.035-.949l-.174,1.677.964-1.185,2.752-.477-1.414-.915.168-2.246c2.277,2.832,1.62,3.69.331,5.924l-1.788.571c-.012,1.373-1.736,2.608-2.42,2.074-.177-.139-.316-.84-.375-1.009-.074-.211-.526-.144-.952-.17.149-.487.373-1.349-.067-1.841ZM174.707,93.129c-.934-.574-1.386-1.156-1.867-1.978l2.693-.482h0l-.827,2.46ZM175.133,96.723c-.169-.957,2.576,1.8,2.634,2.963l-2.498-2.192-.136-.771ZM177.121,101.81l-1.56.182c.246-.621.4-1.362.396-2.074l-.003-.527c0-.288.64.472.635.453l.533,1.965h0ZM180.189,98.022c.374.213-.432,1.382-.867,1.346-1.338-1.128-2.749-2.349-3.958-3.667,1.756.618,3.196,1.392,4.825,2.321ZM194.714,80.852l-14.126,10.049c-1.731,1.232-3.4,2.241-5.387,3.302l.774-3.037c.405-1.591,1.308-2.573,2.902-3.254l2.097-.895c3.642-4.112,10.333-6.187,15.491-8.502l-4.698,3.622c.912-.513,1.76-1.035,2.947-1.285ZM190.347,74.948l-7.838-.364-1.65,1.358h0c-.101.082-.617.13-.682.029l-.318-.496c-.097-.152.357-.335.531-.384l.662-.187c.127-.036.019-.608-.113-.595l-1.017.098,1.15-1.974.014.858c.002.158.218.315.589.591l.151-2.429,15.749,3.311c-2.505.153-4.785.298-7.229.184ZM198.749,72.437c-1.272-.515-2.227-1.175-3.272-1.861l-6.956-4.571-3.55-2.303,1.562-1.028c.322-.212,1.129-.461,1.494-.362.427.115.6,1.19.59,1.667.571-.089,1.459.214,2.021.748l8.112,7.709h0ZM193.379,61.842l2.507.099,4.652,8.805-7.159-8.904ZM201.043,66.335c-1.029-1.891-1.502-3.556-1.93-5.341l-1.072-4.47c-.189-.79-.054-1.447.834-1.842l1.015,5.204c.428,2.192,1.33,4.256,1.153,6.449ZM204.409,59.997c-.028,1.308-.427,2.826-.762,4.123l-.879-4.563c-.027-.143-1.047-.012-.949.097l.618.687c.332,2.46.328,4.828.363,7.715-.426-.118-.743-.777-.862-1.46l-1.251-7.167-1.043-6.367.892,1.344.334-1.041c2.38.408,2.259,1.551,3.666.756l-.127,5.876ZM205.309,59.722c.128-1.021-.265-2.092,1.05-2.872.955,1.383-.762,3.552.058,4.793l1.29-4.008h0c1.225-.433-.773,6.182-1.442,4.816-.939.973-.199,4.351-1.613,5.501.042-2.902.311-5.475.656-8.23ZM288.151,158.99l-.983-2.022.038,3.214c-1.005-.839-1.744-2.974-.83-4.009.606-.686,1.059-1.063,1.232-2.009.224-.147,1.536,1.054,1.385,1.629l-.842,3.197ZM218.943,108.901c.238.008.672.425.721.659h0c.119.561.09,1.265-.146,1.578-.296.393-1.321.807-1.777.578-.015-.732.301-2.845,1.202-2.815ZM220.492,112.203l-.468,1.727-2.323-.541,2.791-1.185ZM215.987,107.551c-.049,1.465-.13,2.577-.519,4.058l-.41-2.723c-.054-.361.261-.872.929-1.335ZM208.226,128.138l3.35,7.035c-.415.308-4.674-6.674-3.35-7.035ZM207.182,128.938c2.066,4.269,3.544,5.496,5.571,9.584l-4.955-6.5c-.471-.618-1.588-1.628-1.747-2.319-.075-.326.987-1.03,1.131-.765ZM197.837,119.914l-.49,1.701h0c-.087-.011.734.039.713.242l-.117,1.135-1.964-1.643c.356-.552.742-.924,1.858-1.435ZM196.291,122.624l2.055,1.921c.374.651.646.756,1.946,1.31h0s-1.995,1.155-1.995,1.155l-1.873-1.901c-.631-.64-.83-1.363-1.985-1.416-.096-.656,1.269-1.614,1.852-1.069ZM192.178,152.059c-.461-.121-1.489.364-1.893.489l-2.54-1.666,1.32-2.324c.198.534.227,1.036.473,1.074l1.189.184c.115-.73.188-1.417.509-1.603.321-.186,1.087-.179,1.546-.182l.605-.004c.125,0-.034-.538-.158-.528l-.573.045-.621.042c-.17.011-.181-.577-.104-.73.077-.153.394-.268.647-.28l2.998-.137c.074-.003.38.534.324.583-.088.077.205-.163.412-.331l-1.132-2.535.866-.405,1.02,1.557-.156-1.453c-.028-.259.644-.689.795-.474.209.299.483.797.681,1.212,2.22-1.359,4.462-.946,7.565.211-1.981.607-3.905.462-5.963.385l-1.786-.067-.909,1.469h-.002c-.093.15-.19.672-.219.819-.029.147.729.167.834.06,1.843-1.878,5.838-1.713,8.533-.867-.958.363-6.481,1.449-6.696,1.129l-.517-.77c.097,1.663-4.252,1.744-5.431,1.129l.68,2.009c-.652.313-1.081.548-1.264.862-.284.486.471.946.878,1.313.477.431.237,1.947-.034,2.549l-3.142-1.319c.408-.997,1.253-.793,2.596-.435-.346-.405-.909-.9-1.331-1.011ZM187.986,153.967c-.05.159-.668.406-.782.284-.114-.122-.226-.263-.339-.42-.13-.18.401-.496.819-.712.004-.041-.007-.778-.011-1.097-.004-.308,1.128-.103,1.22.193l.348,1.118c-.418-.123-.945-.368-.999-.195l-.257.828h.001ZM185.6,151.175l-2.193-.456c.006-.263.015-.648.003-.744-.017-.145.292-.174.534-.251l2.575-.819-.919,2.27ZM184.175,146.404c2.026-1.457,1.322-3.281,2.146-2.845.153.081.21.568.1.737l-1.398,2.146,1.633-.784c.175-.084.62.668.441.742l-.951.393c-.354.125-.587.8-.165.669v-.002l.978-.047c.112-.005-.025.652-.132.686l-3.65,1.147c-.189-.383-.135-1.23.151-1.245l1.434-.073-.587-1.524ZM187.376,149.027c.095-.182.442-.111.695-.077-1.095,1.365-1.54,2.656-1.838,4.583h0c-1.238-1.583.251-2.776,1.143-4.506ZM188.198,144.187l.284-.748c.065-.17.422.039.618.109.316-.26,1.159-.718,1.398-.397h0l1.152,1.546-3.452-.51ZM200.571,142.666c-.241.132-.82.199-1.105.077l-1.593-.683c.567-.56,1.717-.74,2.598-.416h0c.239.089.293.916.1,1.022ZM209.904,144.301h0s-2.128-.373-2.128-.373c-2.162-.38-4.622,0-6.657-1.41,2.991-.689,5.941.478,8.785,1.783ZM202.494,140.156l.472-1.531c2.407,1.197,4.533,2.047,6.71,3.981l-7.182-2.45ZM197.633,152.749c-1.592-2.662,10.648-3.792,11.529-5.237l-9.318,2.379c-.238.061-.844-.23-1.001-.357-.208-.168.318-.856.589-.898l10.459-1.628c-.884,2.083-9.859,5.106-12.258,5.741ZM207.245,150.137h0c-1.812,1.222-3.488,2.318-5.421,3.182l-5.372,2.4c-.232.103-.404-.537-.36-.865.03-.221.364-.208.933-.236,2.888-2.482,6.544-3.171,10.221-4.481ZM194.059,151.537c.593-1.441,2.281-3.381,3.843-2.222.34.252.094,1.376-.14,1.738l-1.876,2.893h0l-1.031-1.341,1.158.004c.211,0,.216-.563.2-.809-.062-.955-2.57.751-2.153-.263ZM195.125,159.433l.795,1.093c.093-.978.158-1.962-.24-3.148l1.899,1.029.176.967c.032.175-.645.118-.705.167l-.172.94h0c-.083.453-2.277.699-2.13.211l.378-1.259ZM196.029,156.634l3.041.273c.462.041.251,1.431-.141,1.435l-2.9-1.708ZM197.182,156.1c2.502-1.716,4.246-1.469,6.041-2.712l5.38-3.726h0s2.705-1.334,2.705-1.334c-2.605,2.062-5.01,4.417-8.133,5.88l-2.762,1.294c-1.113.522-2.075,1.077-3.231.598ZM210.573,141.578l-3.116-1.385c-1.619-.739-3.121-1.475-4.606-2.929.053-1.826,7.098,3.549,7.722,4.313h0ZM201.716,134.98l.59.579c.105.103.266.6.123.634l-.977.23c-.351.083-.819-.317-1.053-.826-.269-.585.104-.792,1.032-1.056l-.476-.656c-.148-.204-.734.01-.881.25-.178.29-.402.811-.627.829l-1.302.106,1.064.935,1.483,3.082.807-.428c.132-.07-.285-.452-.407-.545l-.767-.585c-.192-.147.221-.927.245-.663.538.466.924.784,1.455,1.076.305.168.126,1.082-.177,1.469-.245.313-.808.005-1.783-.091l1.194,1.626-1.946-.08c-.18-.007-.648.112-.745-.009l-.498-.619-1.977.094c-.062.076-.277.468-.16.528l.892.459v.005c.355.183-.058,1.158-.377,1.389-1.229.891-1.777-1.286-3.247-.006l1.015.078c-.763.741-1.886.89-2.751.505-.056-.289-.046-.732-.221-.769l-.939-.197,2.213-1.165c-1.019.183-1.243.24-2.173.285l-1.219,1.016.576-2.761,2.654.569c.24.051.859.185.813.357l-.274,1.029c.697.321,1.755-.391,2.179-1.138l-1.908-.28c-.376-.055-.451-.995-.509-1.516l-2.318-1.818.379-1.248c.078-.259.9.461.931.734.183,1.617,1.268,2.075,1.585,1.908.205-.108.586-.68.343-.788-.282-.126-.795-.332-1.013-.427-.276-.12-.301-.913-.387-1.238l-.558-2.098c2.801.002,3.52,4.412,2.937,3.953l.488.385c.054.696.203,1.325,1.021,1.635l-.495-1.515,1.783.216-.664-1.103c-.096-.16.263-.655.441-.601l1.116.337c-.482-1.491-2.573-1.025-3.578-1.854-.952-.785-1.495-2.208-3.047-2.208l-.424-.798c-.121-.229.799-.514,1.104-.42,1.136.352,2.5,1.044,2.261,3.005l.88-.854c.105-.101.457.164.473.312l.104.969c.519-.462.61-1.229.656-2.16.023-.471,1.61-.203,1.635.266l.042.779c.007.131.441.289.539.2l.715-.65c-.807-.286-1.494-1.104-1.742-2.095l1.867-1.69c.419-.327,1.726.654,1.723,1.201-.024,4.304,1.024,1.349,1.743,4.026l-1.481-.101ZM194.444,130.635c.135-.095.461-.012.609.064.148.076-.286.749-.449.786-.726.164-2.407-.179-2.872-.829-.148-.207.385-1.013.612-.944l1.037.315c.171.052.667.071.644.208l-.132.79h0s.551-.39.551-.39ZM194.677,124.532l2.248,2.049h0c1.746,1.593-3.09-1.789-2.868-1.122l-.173.839c-.036.172-.519.354-.632.22-.452-.536.282-2.25,1.425-1.986ZM193.649,128.559h0c.11.308-.943.684-1.015.419-.072-.265-.109-.809-.049-1.076l.137-.612c.032-.142-.38-.242-.481-.136l-.784.825c.132-.787.248-1.281.683-2.586.635.877,1.149,2.151,1.51,3.166ZM192.239,120.216c.025.855-.389,1.724-.774,2.418-.557-1.282-.841-2.33-.861-3.523.479.087,1.623.701,1.635,1.105ZM190.315,127.967c.097-.109.415-.477.453-.352.057.187.156.595.082.775l-.227.55c-.059.142.353.449.48.363l1.011-.683h0l-1.148,2.12-1.915-1.348,1.263-1.425ZM187.693,131.267l.707-1.074c-.841.226-1.546.434-2.589-.105.368-.36.948-.834,1.303-1.07.357-.238,1.32.321,1.467.719.266.719.16,1.708-.145,2.447h0c-.287-.046-.892-.691-.743-.917ZM178.343,145.919c1.031.175,1.815.353,2.351,1.132l-2.059-.661,1.723,1.701-2.353-.562.338-1.61ZM180.922,154.193c-.033.355-.643,1.182-.933,1.054-.61-.561-.695-2.156-.361-2.85l-1.227-.649,1.412-1.159,1.032,1.044c.02-.056-.108.296-.144.4-.039.112.069.165.379.427h0s-.159,1.733-.159,1.733ZM181.636,147.241h0c-.302-.6-.483-1.387-.605-2.154l-.227-1.428,1.39,1.678c-.22.63-.292,1.257.245,1.324l.222-1.585.543-.472c.116-.101-.143-.628-.143-.572l-.899.36c-.156.062-.596-.551-.474-.668l.663-.636c.184-.177.598-.722.824-.665l1.323.333c-.006-.256-.82-1.097-1.128-.955l-1.691.778-.36-1.054c-.131-.384.709-1.537,1.082-1.376.3.129.699.714.963,1.108l1.337-1.14c-.871-.127-1.33-.153-1.932-.718l4.245.085c-.062.754-.584.969-1.246,1.008-.159.009-.399.046-.48.082-.121.054-.274.424-.145.459l.67.183c.119.032.524.113.5.129-.029.02-.214.265-.492.632-.21.057.847.306.867.071l.095-1.104c.303-.381.99-.819,1.958-1.119-.815,1.405-1.53,2.418-2.341,3.421l-1.112-.754c-.202-.137-.47.447-.669.59l-1.135.817,1.049,1.027c-.55.241-1.253,3.305-1.98,2.867l-.916-.552ZM183.455,156.883c-.014.237-.072.558-.107.728-.044.21-1.785.172-.945-3.79l1.481-.499c.166-.056.389.794.403.971.014.177-.113.123-.695.221h0s-.137,2.369-.137,2.369ZM183.444,164.358l.543-.143c.079-.021.28.091.277,0l-.033-1.105,2.247,2.306c-1.214-.24-2.053-.503-3.034-1.058ZM184.87,162.346c.061-.224.885-.304,1.018-.113h0c.332.477.675,1.531.806,2.239-1.117-.578-2.092-1.13-1.824-2.126ZM188.474,172.263h0c.481-.39,1.042-.769,1.719-1.206l-1.487-.697c.982-.229,1.55-.238,2.868.192l-3.099,1.711ZM207.999,154.23c-2.128,2.783-5.021,4.882-7.467,7.401-1.03,1.061-1.98,2.099-3.052,3.058l-5.33,4.768-3.152-3.346c.421-.037,1.601-.087,2.148-.041.813.068.624,2.282,1.821,1.897,1.797-.579-.153-1.383.311-3.081l-1.154-.723.272,1.274-1.215-.96c-1.137.674-1.882,1.024-3.21,1.133l.41-2.577c.708-.882,1.564-1.906.428-2.673-.028,1.027-.086,2.122-.618,2.251-.169.041-.574-.558-.495-.714l.333-.656-2.067-.012-.536-.673c-.064-.08-.032-.092.128-.077l.834.077c.069-.22-.113-1.237-.355-1.575-.241-.336-1.063-.525-1.603-.707-.403-.143-.114-1.513.35-1.694.344-.134.965.664,1.223,1.022l.246-1.384c-.333-.156-1.125-.551-1.237-.668.933-1.365,2.763-.976,3.812-.555-.563,1.178,1.277,1.305.872,1.787l-.729.868-.294-1.431c-.067-.329-1.382-.214-1.306.117.145.63.546,1.562.847,2.148l-.458,1.536,1.619-.702c.604.079,1.632.431,2.063.079l1.994-1.631c-.128.814-.852,1.298-1.747,2.019l1.23-.201-1.339,1.248.167.879c.051.269-.807.518-1.064.576-.546.244-1.015.551-.386.497.612.008,1.098.025,1.241.24.192.29.49.846.709.835l.88-.043c.269.335.608.782.864.946.654.42,1.483-1.88,1.754-.923l.342,1.206.59-2.077-.969.2.626-.804c.147-.188.034-.809.045-1.086.007-.189.668-.192.73-.016l.305.867-.028-1.226,1.604.15c.105.01.522.36.583.443.092.124.386-.289.288-.409l-.434-.529-.371-.444c-.075-.09.386-.277.456-.183l.416.557.48-2.067h-.004c3.032-3.922,6.853-6.396,11.139-8.82l-3.54,4.629ZM204.279,134.659c-.175-.168.278-1,.461-.932.25.094.814.345,1.098.674l6.085,7.039c-2.538-1.834-5.353-4.596-7.644-6.781ZM211.816,139.772l-6.472-6.6-2.481-2.159-2.306-2.161.91-.785c.143-.123-.171-.496-.245-.714l.358-3.299-2.768-.305.551-.458-.759-2.264c.876-.287,1.206-.409,1.732-1.051l-1.581.147c-.018-.616.605-1.84,1.218-1.975.312.342.624,1.069.775.904.191-.209.614-.673.584-.64-.846-.127-1.41-.646-1.686-1.507.601-.204.989-.615,1.509-1.167l2.911-3.091c.66.943,1.028,1.553,1.413,2.379l1.283,2.75c.147.314.045.944-.271,1.141-.27.168-.852-.171-1.117-.448l-.948-.991.146.866c.039.227-.455.671-.524.459l-.223-.757c-.031-.107-.41.015-.393.124l.116.736-1.24-.682-.502.874c-.058.077.061.524.192.47l.817-.333c.718.827.23,2.484-.641,3.226l.048-1.837-.693.884c-.106.136-.462-.118-.887-.313-.666-.072-.461.297.135.585.322.318.576.701.719,1.073l.631.117c.885.164-.884.998.274,1.716.174.108.634-.359.851-.547l2.429.297c-.615.292-.838.364-1.452.564l-2.216,2.365,1.47-.934c.257-.163.74.445,1.094.74.234.195-.159.618-.49,1.115l-.161-.903h-.002c-.501.11-1.18.507-1.55.944l.915-.03c.194-.007.553.396.722.576l.786.836c.207.22-.357.871-.468,1.158l1.24-.361c.242-.07.764.461.918.673l7.499,10.335c-.732-.556-1.539-1.099-2.17-1.742ZM206.026,123.366l-2.48-1.204.454-1.363c.899.827,1.401,1.441,2.026,2.567ZM213.528,137.226h0s-4.666-9.659-4.666-9.659c.746.203,1.13.627,1.815,1.498l-1.135-2.707,1.373-.475c1.231-.426,3.712,12.746,3.935,13.837-.595-.732-.874-1.566-1.322-2.494ZM213.038,123.042l-1.396.923c-.675-1.291-1.217-2.496-1.618-4.395l2.565,2.01h0c.274.215.695,1.299.449,1.462ZM215,136.539c-1.048-3.019-1.362-5.893-2.21-8.854l-.988-3.448c-.122-.423,1.538-.764,1.572-.281.193,2.72.391,5.088,1.09,7.757h0c.441,1.681.894,3.17.536,4.826ZM216.528,139.702c-.482-4.246-1.19-7.682-2.217-11.696-.625-2.443-.727-5.867-1.154-8.326-.034-.194-.772-.428-.749-.256l.167,1.23c-.178-.076-1.131-.592-1.15-.999l-.084-1.845-.695,1.043c-.164.247-.946.055-1,.011-.033-.803-.244-1.288-.727-2.044l.785-1.221.4.78c.451.879,1.472-1.875,3.293-1.383l-1.974,1.817c.367.102.72.106.741.221l.143.773c.959-.617,1.207-1.785,1.86-3.149l-.296,3.37.288.264c.346.317.38-2.689,1.062-3.622h0c1.09,1.065,1.93,6.678,2.079,8.256.518,5.467.392,11.175-.773,16.776ZM306.044,180.157c-3.353-1.972-6.294-4.248-9.4-6.793v-.002c-1.673-1.391-7.884-5.626-6.13-7.654,1.476-.342,2.987-1.091,2.613-2.736-.201-.885-.275-1.8.187-2.809,5.02,6.097,9.8,11.953,15.32,17.603l9.348,9.569c-3.979-2.564-7.707-5.038-11.938-7.178Z" fill="#113313"/>
  </g>
</svg>